<svg width="11" height="11" viewBox="0 0 11 11" fill="none" xmlns="http://www.w3.org/2000/svg">
<path d="M5.656 10.042C4.956 10.042 4.30733 9.916 3.71 9.664C3.11267 9.412 2.59 9.062 2.142 8.614C1.694 8.15667 1.344 7.62933 1.092 7.032C0.849333 6.43467 0.728 5.79067 0.728 5.1C0.728 4.40933 0.854 3.76533 1.106 3.168C1.358 2.57067 1.708 2.048 2.156 1.6C2.604 1.14267 3.12667 0.787999 3.724 0.535999C4.33067 0.284 4.984 0.158 5.684 0.158C6.384 0.158 7.03267 0.284 7.63 0.535999C8.23667 0.778666 8.75933 1.124 9.198 1.572C9.646 2.02 9.99133 2.54267 10.234 3.14C10.486 3.728 10.612 4.372 10.612 5.072C10.612 5.772 10.486 6.42533 10.234 7.032C9.982 7.62933 9.62733 8.15667 9.17 8.614C8.722 9.062 8.19933 9.412 7.602 9.664C7.00467 9.916 6.356 10.042 5.656 10.042ZM5.642 9.524C6.27667 9.524 6.86 9.412 7.392 9.188C7.924 8.95467 8.39067 8.63733 8.792 8.236C9.20267 7.83467 9.52 7.36333 9.744 6.822C9.968 6.27133 10.08 5.688 10.08 5.072C10.08 4.44667 9.968 3.868 9.744 3.336C9.52933 2.804 9.22133 2.33733 8.82 1.936C8.428 1.53467 7.96133 1.22667 7.42 1.012C6.888 0.788 6.30933 0.676 5.684 0.676C5.04933 0.676 4.46133 0.788 3.92 1.012C3.37867 1.236 2.90733 1.55333 2.506 1.964C2.114 2.36533 1.806 2.832 1.582 3.364C1.358 3.896 1.246 4.47467 1.246 5.1C1.246 5.716 1.358 6.29467 1.582 6.836C1.806 7.368 2.114 7.83933 2.506 8.25C2.90733 8.65133 3.374 8.964 3.906 9.188C4.44733 9.412 5.026 9.524 5.642 9.524ZM5.782 8.012C5.222 8.012 4.72267 7.89067 4.284 7.648C3.84533 7.396 3.5 7.05067 3.248 6.612C2.996 6.17333 2.87 5.66933 2.87 5.1C2.87 4.53067 2.996 4.02667 3.248 3.588C3.5 3.14933 3.84533 2.80867 4.284 2.566C4.72267 2.314 5.222 2.188 5.782 2.188C6.258 2.188 6.68733 2.286 7.07 2.482C7.462 2.66867 7.77467 2.93 8.008 3.266L7.406 3.714C7.21 3.44333 6.972 3.24267 6.692 3.112C6.412 2.98133 6.104 2.916 5.768 2.916C5.36667 2.916 5.00733 3.00933 4.69 3.196C4.382 3.37333 4.13467 3.62533 3.948 3.952C3.76133 4.27867 3.668 4.66133 3.668 5.1C3.668 5.53867 3.76133 5.92133 3.948 6.248C4.13467 6.57467 4.382 6.83133 4.69 7.018C5.00733 7.19533 5.36667 7.284 5.768 7.284C6.104 7.284 6.412 7.21867 6.692 7.088C6.972 6.95733 7.21 6.75667 7.406 6.486L8.008 6.92C7.77467 7.26533 7.462 7.536 7.07 7.732C6.68733 7.91867 6.258 8.012 5.782 8.012Z" fill="#0D47AA"/>
</svg>
