<svg width="120" height="120" viewBox="0 0 120 120" fill="none" xmlns="http://www.w3.org/2000/svg">
<path d="M44.4908 52.3664C44.3927 51.8756 44.2627 51.3915 44.1426 50.9052C43.8262 49.6032 43.5369 48.2922 43.1862 46.9968C42.5364 44.5944 41.8718 42.1942 41.1704 39.803C40.3097 36.8605 39.3141 33.9539 37.9899 31.1504C37.4798 30.0702 36.8962 29.0213 36.0625 28.107C35.7118 27.7215 35.2679 27.4683 34.7554 27.3316C34.287 27.2061 33.804 27.103 33.3184 27.0604C31.543 26.9058 29.7946 27.038 28.1001 27.5714C27.08 27.8919 26.2535 28.4028 25.844 29.3755C25.459 30.2876 24.9858 31.1705 24.6057 32.0871C23.2569 35.3232 22.2539 38.6556 21.3981 42.0217C20.7581 44.5339 20.2113 47.0686 19.6497 49.5987C19.4658 50.4369 19.3431 51.2862 19.2303 52.1333C19.0636 53.3793 19.7281 54.1996 21.067 54.4438C22.8841 54.7755 24.7234 54.8629 26.5674 54.7509C27.3423 54.7038 28.1172 54.5447 28.8774 54.3811C29.6425 54.2175 30.1501 53.7939 30.2678 53.0387C30.3389 52.5815 30.4763 52.1311 30.5768 51.6784C30.8637 50.3875 31.1237 49.09 31.4375 47.8059C31.6043 47.1246 31.9476 46.515 32.7715 46.3088C33.1075 46.2237 33.4655 46.1878 33.8162 46.1766C34.4415 46.1565 35.0693 46.1721 35.6971 46.1721V46.1296C36.3641 46.1296 37.0311 46.143 37.6981 46.1251C38.2547 46.1116 38.63 46.3559 38.8924 46.7682C39.0297 46.9811 39.1547 47.212 39.2258 47.4495C39.422 48.1017 39.5961 48.7583 39.7629 49.4172C40.0767 50.6498 40.3759 51.8823 40.6898 53.1149C40.8198 53.6304 41.2269 53.8702 41.7688 53.9733C42.3426 54.0831 42.9115 54.0449 43.4535 53.8836C44.4466 53.5878 44.6575 53.1933 44.4908 52.3664ZM35.8614 43.6599C35.1404 43.6644 34.4096 43.6599 33.7009 43.5568C32.7421 43.4156 32.3032 42.8263 32.4994 41.9724C32.9383 40.0742 33.414 38.1828 33.8971 36.2936C33.9854 35.944 34.0688 35.554 34.5151 35.3546C34.8903 35.5159 34.9467 35.8117 35.0375 36.0784C35.5451 37.5732 36.0428 39.0725 36.5382 40.5695C36.6902 41.0289 36.83 41.4928 36.9673 41.9567C37.0066 42.0934 37.036 42.2346 37.0458 42.3758C37.1071 43.2341 36.8251 43.6554 35.8614 43.6599Z" fill="#5CCF54"/>
<path d="M118 39.2592C117.887 40.875 117.829 42.4975 117.645 44.1066C117.434 45.9331 116.838 47.6587 115.668 49.1915C114.525 50.6886 112.998 51.7329 111.144 52.3895C108.924 53.1761 106.605 53.2971 104.258 53.2165C102.37 53.1492 100.56 52.7794 98.912 51.9234C97.1857 51.0269 95.8786 49.7966 95.398 47.9791C95.3072 47.6385 95.2974 47.2754 95.2876 46.9213C95.2533 45.6439 96.9306 45.1039 97.963 45.6059C98.5295 45.8815 98.8678 46.3274 99.1719 46.8115C99.5692 47.4457 99.9567 48.0844 100.356 48.7187C100.692 49.2498 101.141 49.6958 101.693 50.0499C103.005 50.8925 104.834 50.4756 105.56 49.1669C106.183 48.0441 106.377 46.8295 106.426 45.5946C106.448 45.0635 106.389 44.5279 106.345 43.9945C106.283 43.2774 105.913 42.8112 105.084 42.6611C104.221 42.5042 103.37 42.2891 102.512 42.0964C101.271 41.8185 100.062 41.4778 99.0175 40.7629C97.7742 39.9158 96.8938 38.8132 96.3126 37.5268C95.3489 35.3844 95.0865 33.1546 95.496 30.8687C95.577 30.4182 95.7511 29.9745 95.9325 29.5465C96.0846 29.1924 96.4107 28.9772 96.8398 28.9571C97.5682 28.9235 98.2867 28.966 98.9488 29.2932C99.373 29.5016 99.6649 29.8109 99.7066 30.2502C99.7703 30.9225 99.8242 31.597 99.8169 32.2716C99.8095 33.1613 99.7164 34.051 99.7066 34.9407C99.6943 35.9715 99.937 36.9509 100.543 37.8473C101.151 38.746 102.039 39.2883 103.122 39.5819C103.495 39.6827 103.895 39.7007 104.28 39.7612C105.155 39.9024 105.935 39.248 106.068 38.6698C106.141 38.3471 106.178 37.993 106.114 37.6725C105.857 36.3592 105.521 35.0572 105.278 33.7395C105.067 32.5943 104.996 31.4401 105.239 30.2838C105.467 29.1968 106.198 28.5716 107.35 28.3049C109.319 27.8478 111.31 27.85 113.304 28.1099C114.143 28.2198 114.945 28.482 115.675 28.8697C116.215 29.1543 116.561 29.607 116.764 30.1538C117.157 31.2071 117.345 32.2985 117.502 33.3921C117.784 35.3374 117.892 37.2938 117.995 39.2592H118Z" fill="#5CCF54"/>
<path d="M17.7135 29.1304C16.9582 28.6396 16.1245 28.2945 15.2368 28.048C12.8778 27.3869 10.4623 27.0776 8.49316 27.0664C6.82074 27.0664 5.6461 27.0888 4.48865 27.3286C3.31158 27.5729 2.19581 27.9247 1.29584 28.7091C0.881415 29.0699 0.616572 29.5046 0.557718 30.0089C0.388514 31.5126 0.207039 33.0187 0.118759 34.5291C-0.0381836 37.1982 -0.0234583 39.8695 0.0697265 42.5409C0.17272 45.443 0.285544 48.3452 0.64357 51.2316C0.744111 52.0519 0.974583 52.843 1.46258 53.5534C1.93341 54.2347 2.58574 54.7075 3.46609 54.8353C4.14045 54.9339 4.82949 54.9675 5.51367 54.9921C6.79373 55.0347 8.05417 54.8846 9.30235 54.6201C9.72414 54.5327 10.065 54.3646 10.3642 54.0935C10.8988 53.6004 11.1096 52.9707 11.2617 52.3231C11.4995 51.3258 11.5461 50.3083 11.4995 49.2931C11.4088 47.4062 11.2519 45.5237 11.1734 43.639C11.1342 42.6641 11.1808 41.6825 11.2347 40.7077C11.274 39.9883 11.7718 39.5804 12.5222 39.437C13.096 39.3294 13.6771 39.2488 14.2583 39.1771C15.173 39.065 16.0902 38.9731 16.9534 38.6616C18.1157 38.2403 19.0402 37.5814 19.6385 36.5461C20.1118 35.7281 20.2417 34.8518 20.2712 33.9644C20.3398 31.9631 19.5429 30.3114 17.7135 29.1304ZM15.0675 36.2793C14.3711 36.5505 13.6502 36.6693 13.2014 36.6738C11.4775 36.732 10.6119 36.1315 10.2955 34.863C10.0405 33.8344 10.1925 32.8393 10.7345 31.916C11.0655 31.3468 11.5952 30.9524 12.3284 30.8448C13.5079 30.67 14.6409 30.7014 15.5678 31.5171C16.3501 32.2073 16.7645 33.0634 16.7474 34.045C16.7277 35.0961 16.1612 35.8535 15.0675 36.2793Z" fill="#5CCF54"/>
<path d="M55.1105 40.677C55.1571 42.2367 55.3582 43.8592 56.0056 45.4123C56.4323 46.4364 56.9889 47.3934 57.9207 48.1262C59.3356 49.2423 61.0253 49.2266 62.4942 48.6417C63.1317 48.3884 63.4971 47.855 63.8012 47.3104C64.1101 46.7547 64.375 46.1787 64.6545 45.6095C64.9537 45.0022 65.3142 44.4285 65.8806 43.9982C66.4912 43.5366 67.227 43.42 67.8351 43.7674C68.2005 43.9758 68.3599 44.2783 68.4628 44.6302C68.7964 45.7529 68.7007 46.8645 68.252 47.9357C67.0528 50.802 64.8384 52.6643 61.5304 53.3725C59.4362 53.8207 57.3714 53.6795 55.336 53.0296C53.2713 52.3685 51.4247 51.4116 49.8872 49.9751C48.2246 48.4243 47.1947 46.5664 46.6724 44.48C46.1329 42.3309 45.9122 40.1503 46.2579 37.954C46.8195 34.3841 48.8254 31.6612 52.2022 29.7765C54.1836 28.6694 56.3439 28.015 58.6515 27.7483C60.4465 27.5422 62.1876 27.764 63.8306 28.4117C65.9076 29.2319 66.994 30.7827 67.3986 32.7571C67.4722 33.1179 67.4746 33.5011 67.4305 33.8664C67.3667 34.4042 67.0381 34.7852 66.4471 34.9533C65.812 35.1326 65.248 35.0205 64.7576 34.6127C64.4118 34.3258 64.2377 33.9516 64.1077 33.5526C64.0243 33.2972 63.9581 33.035 63.8551 32.7862C63.448 31.8136 62.6511 31.2242 61.5353 31.1278C60.3067 31.0225 59.1836 31.3049 58.2567 32.1408C57.0649 33.2142 56.3439 34.5208 55.856 35.9461C55.341 37.4521 55.135 39.0074 55.1154 40.6702L55.1105 40.677Z" fill="#5CCF54"/>
<path d="M81.3253 27.6877C83.7162 27.6608 86.1072 27.6271 88.4981 27.6114C88.8855 27.6092 89.2877 27.6384 89.658 27.7347C90.6659 27.9947 91.2102 28.6827 91.4309 29.5634C91.8331 31.177 91.865 32.8107 91.556 34.4422C91.507 34.7021 91.3966 34.9531 91.3132 35.2086C91.0754 35.9504 90.4647 36.309 89.6849 36.43C88.8168 36.5645 87.939 36.6406 87.0635 36.7325C86.3058 36.811 85.5407 36.8446 84.7854 36.9499C83.7971 37.0866 83.5396 37.3466 83.4734 38.2363C83.4391 38.7136 83.444 39.1977 83.4881 39.675C83.8192 43.2226 84.1699 46.768 84.5009 50.3156C84.5868 51.2434 84.5671 52.1667 84.2164 53.0586C83.9246 53.8004 83.417 54.1074 82.5612 54.0536C82.2498 54.0335 81.9359 53.9954 81.6294 53.9416C80.6166 53.76 79.9986 53.1976 79.8049 52.2832C79.7117 51.8484 79.6529 51.4024 79.6381 50.9587C79.5499 48.0946 79.4837 45.2284 79.3978 42.3621C79.366 41.3133 79.3145 40.2622 79.2385 39.2156C79.209 38.81 79.1109 38.4066 79.003 38.0099C78.8828 37.5595 78.5396 37.304 78.054 37.1539C76.9799 36.8199 75.8715 36.746 74.7533 36.7303C74.1256 36.7213 73.4977 36.7325 72.8724 36.6922C72.1368 36.6429 71.4747 36.3897 71.0872 35.8003C70.8518 35.4417 70.6924 35.0204 70.6041 34.608C70.3515 33.4225 70.4251 32.228 70.6507 31.0492C70.7807 30.368 70.9916 29.6979 71.1951 29.0301C71.4134 28.3196 71.9823 27.9274 72.7523 27.8176C73.407 27.7257 74.0765 27.6809 74.7386 27.6764C76.9333 27.6585 79.1281 27.6697 81.3229 27.6697C81.3229 27.6764 81.3229 27.6809 81.3229 27.6877H81.3253Z" fill="#5CCF54"/>
<path d="M25.4565 79.3488C25.3216 82.4284 25.2014 85.5236 25.0419 88.6165C24.9854 89.7213 24.8087 90.8239 24.7278 91.9286C24.6492 93.0268 23.7904 93.3965 22.934 93.5094C22.4555 93.5714 21.9525 93.5493 21.4666 93.5072C20.6691 93.4386 20.2397 93.0666 20.0631 92.3581C19.8471 91.4836 19.9477 90.6069 20.0336 89.7302C20.1047 89.0106 20.1833 88.2932 20.2471 87.5759C20.2643 87.3855 20.2618 87.1863 20.2274 86.9981C20.1195 86.3848 19.7686 86.2453 19.2165 86.6062C18.949 86.7811 18.7012 86.987 18.4828 87.2106C17.7467 87.9656 17.0399 88.7427 16.3038 89.4955C15.2928 90.5294 14.1837 91.4659 12.9445 92.2828C10.9618 93.5913 8.73376 94.1094 6.30202 93.981C5.71801 93.95 5.13404 93.8636 4.55494 93.7862C3.38446 93.629 2.5624 93.0113 1.9465 92.1456C1.22753 91.1382 0.812852 90.0224 0.555201 88.86C-0.0091771 86.3228 -0.075435 83.759 0.059525 81.1864C0.189577 78.7045 0.447221 76.2337 0.910992 73.7873C1.28397 71.8124 1.72813 69.8463 2.21153 67.8892C2.42501 67.0235 2.99186 66.3549 4.07154 66.1977C4.41998 66.1468 4.76597 66.0781 5.11441 66.0516C6.67013 65.932 8.21845 66.0162 9.73245 66.3483C10.4686 66.5099 11.1974 66.7534 11.8697 67.0656C12.8144 67.5017 13.2586 68.2567 13.3003 69.2198C13.3298 69.9061 13.0697 70.5349 12.9273 71.1902C12.6525 72.4478 12.3409 73.7031 12.1249 74.9695C11.6955 77.5089 11.4158 80.0661 11.352 82.6366C11.3373 83.2675 11.3127 83.9052 11.4035 84.5273C11.5925 85.8225 12.8488 86.4025 14.1444 85.7871C14.8511 85.4505 15.5186 85.0387 16.1664 84.6158C16.9737 84.0889 17.7712 83.5443 18.5171 82.9509C19.6704 82.0321 20.49 80.9451 20.3698 79.4683C20.3501 79.2403 20.3796 79.01 20.3673 78.782C20.2692 76.9554 20.171 75.1267 20.068 73.3001C20.0189 72.4389 19.9477 71.5799 19.9109 70.7187C19.879 69.977 19.9207 69.2397 20.2029 68.5313C20.7673 67.1143 22.696 66.6405 23.9695 67.6191C24.1585 67.763 24.3057 67.9667 24.4259 68.1637C24.8063 68.7858 25.0566 69.4434 25.0836 70.1674C25.2013 73.2271 25.3338 76.2846 25.459 79.3643L25.4565 79.3488Z" fill="#5CCF54"/>
<path d="M95.2164 91.472C94.8287 89.8934 94.4655 88.3082 94.041 86.7363C93.3318 84.106 92.6276 81.4714 91.8375 78.8611C90.9884 76.0604 90.0535 73.2819 88.7481 70.6162C88.2671 69.6332 87.7518 68.6657 87.0329 67.8C86.547 67.2111 85.9115 66.8303 85.1116 66.6665C83.5558 66.3521 81.9952 66.3942 80.437 66.6421C79.6052 66.7728 78.7954 66.9853 78.0372 67.3284C77.517 67.5653 77.0679 67.8797 76.8177 68.358C76.4324 69.0886 76.0619 69.8281 75.7208 70.5764C74.754 72.693 73.9835 74.8737 73.3332 77.0833C72.6854 79.2928 72.0449 81.5068 71.51 83.7407C70.9383 86.1274 70.477 88.5384 70.0083 90.945C69.9273 91.3657 69.974 91.8262 70.0697 92.2491C70.2267 92.9553 70.7641 93.3538 71.5444 93.5177C72.9308 93.8077 74.3368 93.8764 76.1404 93.9251C76.6901 93.8852 77.6347 93.8498 78.5623 93.728C79.1144 93.6527 79.6592 93.4689 80.1794 93.2763C80.5916 93.1236 80.8419 92.8136 80.9303 92.3929C81.0898 91.6336 81.2885 90.8808 81.4627 90.1236C81.7032 89.0742 81.9265 88.0181 82.1792 86.9709C82.4172 85.9901 83.0111 85.5274 84.1104 85.4233C84.2453 85.41 84.3827 85.4012 84.5202 85.399C85.855 85.3835 87.1875 85.3747 88.5199 85.3547C88.8364 85.3503 89.0867 85.4521 89.3174 85.6359C89.656 85.9038 89.8474 86.2514 89.9456 86.63C90.2891 87.9296 90.5982 89.2358 90.9418 90.5354C91.1086 91.1686 91.3172 91.7908 91.5135 92.4151C91.6264 92.776 91.9356 92.9509 92.3135 93.0439C92.976 93.2055 93.641 93.1745 94.2839 92.9819C95.1329 92.7295 95.4102 92.2601 95.2164 91.472ZM86.9396 82.875C86.6133 82.9304 86.2771 82.9326 85.8354 82.9681C85.4551 82.9282 84.9619 82.9016 84.4834 82.8197C83.4184 82.6381 83.0209 82.0315 83.2638 81.0817C83.6785 79.4545 84.0638 77.8205 84.4735 76.191C84.5643 75.8324 84.6772 75.4737 84.8318 75.1349C84.9054 74.9755 85.0845 74.7807 85.2514 74.7475C85.5115 74.6966 85.5753 74.9623 85.644 75.1349C85.9311 75.8833 86.2157 76.6316 86.4758 77.3866C86.8464 78.4604 87.2096 79.5386 87.5408 80.6234C87.6733 81.0596 87.7666 81.5179 87.7837 81.9695C87.8034 82.5208 87.5408 82.7732 86.9396 82.875Z" fill="#5CCF54"/>
<path d="M117.989 76.5855C117.944 74.1235 117.861 71.6594 117.485 69.2129C117.38 68.531 117.066 67.9554 116.455 67.5568C115.984 67.2513 115.464 66.9878 114.929 66.7819C113.704 66.3059 112.389 66.1975 111.074 66.1466C109.025 66.0669 106.993 66.2329 104.986 66.5938C103.563 66.8506 102.147 67.1628 100.878 67.8314C99.5898 68.5089 98.596 69.4255 98.093 70.7206C97.6292 71.9206 97.6267 73.1383 97.9065 74.3648C98.12 75.308 98.623 76.1072 99.4401 76.7404C100.427 77.5087 101.609 77.8408 102.873 77.9958C103.349 78.0556 103.825 78.122 104.296 78.184C104.286 78.2592 104.291 78.2836 104.281 78.2925C104.201 78.3677 104.12 78.443 104.031 78.5116C102.183 79.9552 100.792 81.7064 99.7419 83.6813C98.6132 85.8023 98.0684 88.0672 97.7224 90.3764C97.6218 91.0428 97.666 91.7158 97.9629 92.3513C98.0365 92.5085 98.1371 92.6634 98.2598 92.7963C98.9788 93.5734 99.9284 93.6664 100.932 93.4339C101.997 93.1882 102.385 92.7166 102.439 91.738C102.522 90.2081 102.66 88.6827 103.018 87.1816C103.393 85.6252 103.894 84.1064 105.005 82.8245C105.322 82.4592 105.729 82.1204 106.171 81.8857C107.047 81.423 107.891 81.8016 108.038 82.7027C108.114 83.1676 108.114 83.6547 108.051 84.1197C107.896 85.2377 107.685 86.347 107.496 87.4606C107.3 88.6074 107.049 89.752 107.13 90.921C107.16 91.3727 107.256 91.8266 107.376 92.2672C107.535 92.8494 108.004 93.1771 108.635 93.332C110.639 93.828 112.664 93.8701 114.698 93.538C115.162 93.4605 115.564 93.2523 115.925 92.9579C116.673 92.3446 117.083 91.5631 117.218 90.7041C117.441 89.2783 117.606 87.8392 117.699 86.4001C117.915 83.1323 118.043 79.86 117.989 76.5855ZM107.628 74.0815C107.233 75.2217 106.451 75.6888 105.104 75.6866C104.493 75.5803 103.862 75.5205 103.273 75.3545C101.631 74.8918 100.873 73.5213 101.411 72.0579C101.496 71.8254 101.595 71.5929 101.722 71.3782C102.785 69.576 104.868 69.5361 106.213 70.0387C106.603 70.1848 106.922 70.4196 107.135 70.7428C107.827 71.7922 108.033 72.9103 107.628 74.0815Z" fill="#5CCF54"/>
<path d="M69.2064 69.0462C68.2494 68.1916 67.0789 67.6757 65.8128 67.3237C63.6068 66.7105 61.337 66.4382 59.0329 66.3164C58.1127 66.3718 57.1925 66.405 56.2748 66.4825C55.2172 66.5754 54.1841 66.7725 53.2198 67.202C52.0272 67.7356 51.242 68.4861 51.0997 69.7724C50.8837 71.734 50.7316 73.6978 50.6825 75.6683C50.5672 80.2822 50.7463 84.8873 51.1904 89.4835C51.2591 90.2141 51.4113 90.9536 51.6567 91.651C52.0542 92.7868 52.8223 93.6436 54.243 93.834C56.1889 94.093 58.1127 94.0244 60.0193 93.5727C60.672 93.42 61.121 93.0791 61.4351 92.5521C61.9553 91.671 62.0756 90.7123 62.1296 89.7425C62.2228 88.0156 62.0732 86.2954 61.9603 84.5751C61.8744 83.2755 61.7542 81.9715 61.7983 80.6741C61.8523 79.1132 61.9848 78.7214 64.1123 78.4335C65.1012 78.2985 66.0974 78.1878 67.0667 77.9841C68.2691 77.7339 69.2505 77.1384 69.9744 76.2218C70.7351 75.2587 70.929 74.1539 70.9314 73.0137C70.9388 71.4971 70.4358 70.1421 69.2064 69.0462ZM67.3808 73.5229C67.2605 74.4727 66.6593 75.0993 65.7293 75.4801C65.0079 75.7767 64.2276 75.8631 63.597 75.8742C62.0241 75.8631 61.2658 75.3251 60.9468 74.083C60.6475 72.9118 60.8487 71.8071 61.656 70.8396C61.8769 70.5739 62.2351 70.3503 62.5811 70.2307C63.4473 69.934 64.3405 69.9384 65.2288 70.2063C65.9159 70.4122 66.3944 70.8573 66.7698 71.3731C67.236 72.0174 67.4814 72.7347 67.3808 73.5229Z" fill="#5CCF54"/>
<path d="M40.2833 82.3252C40.3815 85.2078 40.492 88.0927 40.5705 90.9775C40.595 91.8166 40.3668 92.6092 39.5202 93.0941C39.1522 93.3066 38.7031 93.435 38.2712 93.5214C37.0002 93.7693 35.7119 93.8314 34.4114 93.7671C33.0765 93.7029 32.1808 93.1118 31.6263 92.0424C31.0153 90.8646 30.7208 89.6115 30.4754 88.3451C30.0534 86.1754 29.8546 83.9857 29.7319 81.7895C29.5651 78.836 29.5111 75.8825 29.5651 72.9269C29.5847 71.8022 29.6215 70.6753 29.6681 69.5505C29.7197 68.2841 30.4264 67.4318 31.7907 67.062C32.4606 66.8805 33.1624 66.7521 33.8617 66.6923C36.5438 66.4643 39.2307 66.5019 41.9103 66.7521C43.331 66.8849 44.7444 67.0997 46.1529 67.3145C46.629 67.3875 47.0927 67.5535 47.5418 67.7218C48.1699 67.9587 48.4251 68.3905 48.3908 69.0303C48.3613 69.5816 47.9908 70.0443 47.3871 70.2059C47.0534 70.2944 46.6927 70.3565 46.3467 70.352C45.4854 70.3365 44.6242 70.2768 43.7629 70.2347C43.255 70.2103 42.7445 70.1528 42.2366 70.1616C41.2919 70.1771 40.7667 70.5446 40.5876 71.3771C40.4232 72.1343 40.276 72.907 40.2515 73.6752C40.1975 75.504 40.222 77.3327 40.2171 79.1614C40.2146 80.2175 40.2171 81.2714 40.2171 82.3274C40.2392 82.3274 40.2613 82.3274 40.2833 82.3274V82.3252Z" fill="#5CCF54"/>
</svg>
