<svg width="32" height="32" viewBox="0 0 32 32" fill="none" xmlns="http://www.w3.org/2000/svg">
<path d="M16.2168 16C17.799 16 19.3458 15.5308 20.6614 14.6518C21.9769 13.7727 23.0023 12.5233 23.6078 11.0615C24.2133 9.59966 24.3718 7.99113 24.0631 6.43928C23.7544 4.88743 22.9925 3.46197 21.8736 2.34315C20.7548 1.22433 19.3294 0.462403 17.7775 0.153721C16.2257 -0.15496 14.6171 0.00346625 13.1553 0.608967C11.6935 1.21447 10.4441 2.23985 9.56504 3.55544C8.68599 4.87103 8.2168 6.41775 8.2168 8C8.2168 10.1217 9.05965 12.1566 10.5599 13.6569C12.0602 15.1571 14.0951 16 16.2168 16Z" fill="#0AC2E0"/>
<path d="M29.7143 32C30.3205 32 30.9019 31.8156 31.3305 31.4874C31.7592 31.1592 32 30.7141 32 30.25C32 27.0011 30.3143 23.8853 27.3137 21.5879C24.3131 19.2906 20.2435 18 16 18C11.7565 18 7.68687 19.2906 4.68629 21.5879C1.68571 23.8853 6.32325e-08 27.0011 0 30.25C0 30.7141 0.240816 31.1592 0.669471 31.4874C1.09813 31.8156 1.67951 32 2.28571 32H29.7143Z" fill="#0AC2E0"/>
</svg>
