<svg width="30" height="37" viewBox="0 0 30 37" fill="none" xmlns="http://www.w3.org/2000/svg">
<path d="M15.0001 16.5C16.6954 16.5 18.3526 16.0308 19.7622 15.1518C21.1717 14.2727 22.2704 13.0233 22.9191 11.5615C23.5679 10.0997 23.7376 8.49113 23.4069 6.93928C23.0761 5.38743 22.2598 3.96197 21.0611 2.84315C19.8623 1.72433 18.335 0.962403 16.6723 0.653721C15.0096 0.34504 13.2862 0.503466 11.72 1.10897C10.1538 1.71447 8.8151 2.73985 7.87326 4.05544C6.93142 5.37103 6.42871 6.91775 6.42871 8.5C6.42871 10.6217 7.33177 12.6566 8.93922 14.1569C10.5467 15.6571 12.7269 16.5 15.0001 16.5Z" fill="#0AC2E0"/>
<path d="M27.8571 36.5C28.4255 36.5 28.9705 36.2893 29.3724 35.9142C29.7742 35.5391 30 35.0304 30 34.5C30 30.787 28.4196 27.226 25.6066 24.6005C22.7936 21.975 18.9782 20.5 15 20.5C11.0218 20.5 7.20644 21.975 4.3934 24.6005C1.58035 27.226 5.92805e-08 30.787 0 34.5C0 35.0304 0.225765 35.5391 0.627629 35.9142C1.02949 36.2893 1.57454 36.5 2.14286 36.5H27.8571Z" fill="#0AC2E0"/>
</svg>
