<svg width="22" height="22" viewBox="0 0 22 22" fill="none" xmlns="http://www.w3.org/2000/svg">
<path d="M1 1L21 21" stroke="black" stroke-width="2" stroke-linecap="round" stroke-linejoin="round"/>
<path d="M5.71277 5.7226C2.66479 7.79527 1 11 1 11C1 11 4.63636 18 11 18C13.0503 18 14.8174 17.2734 16.2711 16.2884M10 4.05822C10.3254 4.02013 10.6588 4 11 4C17.3636 4 21 11 21 11C21 11 20.3082 12.3317 19 13.8335" stroke="black" stroke-width="2" stroke-linecap="round" stroke-linejoin="round"/>
<path d="M13 13.2357C12.4692 13.7107 11.7684 13.9996 11 13.9996C9.3431 13.9996 8 12.6565 8 10.9996C8 10.1759 8.33193 9.42982 8.86932 8.8877" stroke="black" stroke-width="2" stroke-linecap="round" stroke-linejoin="round"/>
</svg>
