<svg width="25" height="25" viewBox="0 0 25 25" fill="none" xmlns="http://www.w3.org/2000/svg">
<path d="M12.1094 24.2188C13.6999 24.2208 15.2752 23.9085 16.7446 23.2998C18.2141 22.6912 19.5487 21.7981 20.6719 20.6719C21.7981 19.5487 22.6912 18.2141 23.2998 16.7446C23.9085 15.2752 24.2208 13.6999 24.2188 12.1094C24.2208 10.5189 23.9085 8.94362 23.2998 7.47418C22.6911 6.00473 21.798 4.67005 20.6719 3.54685C19.5487 2.42069 18.2141 1.52761 16.7446 0.918921C15.2752 0.310236 13.6999 -0.00205068 12.1094 1.01335e-05C10.5189 -0.00201751 8.94362 0.310284 7.47418 0.918968C6.00473 1.52765 4.67005 2.42072 3.54685 3.54685C2.42072 4.67005 1.52765 6.00473 0.918968 7.47418C0.310284 8.94362 -0.00201751 10.5189 1.01335e-05 12.1094C-0.00205068 13.6999 0.310236 15.2752 0.918921 16.7446C1.52761 18.2141 2.42069 19.5487 3.54685 20.6719C4.67005 21.798 6.00473 22.6911 7.47418 23.2998C8.94362 23.9085 10.5189 24.2208 12.1094 24.2188Z" fill="#F8D5DB"/>
<path fill-rule="evenodd" clip-rule="evenodd" d="M11.8164 19.7422C12.2981 19.7422 12.7602 19.5508 13.1008 19.2102C13.4414 18.8695 13.6328 18.4075 13.6328 17.9258C13.6328 17.444 13.4414 16.982 13.1008 16.6414C12.7602 16.3007 12.2981 16.1094 11.8164 16.1094C11.3347 16.1094 10.8727 16.3007 10.532 16.6414C10.1914 16.982 10 17.444 10 17.9258C10 18.4075 10.1914 18.8695 10.532 19.2102C10.8727 19.5508 11.3347 19.7422 11.8164 19.7422Z" fill="#DB2744"/>
<path d="M11.8145 4V13.6875V4Z" fill="#F8D5DB"/>
<path d="M11.8145 4V13.6875" stroke="#DB2744" stroke-width="2.42188" stroke-linecap="round" stroke-linejoin="round"/>
</svg>
