<svg width="58" height="30" viewBox="0 0 58 30" fill="none" xmlns="http://www.w3.org/2000/svg">
<path d="M8.73652 0.960588C8.364 0.732174 7.9528 0.571545 7.51497 0.456817C6.35146 0.149135 5.16014 0.00521494 4.18893 0C3.36407 0 2.78473 0.0104217 2.21386 0.122022C1.63331 0.235707 1.083 0.399447 0.639125 0.764493C0.434725 0.932414 0.304101 1.13476 0.275073 1.36943C0.19162 2.06928 0.102114 2.77018 0.0585734 3.47316C-0.0188326 4.71536 -0.0115699 5.9586 0.0343899 7.20184C0.0851877 8.55251 0.140834 9.90316 0.317417 11.2465C0.367005 11.6283 0.480676 11.9964 0.721361 12.3271C0.953579 12.6441 1.27532 12.8642 1.70952 12.9237C2.04212 12.9696 2.38197 12.9852 2.71941 12.9967C3.35075 13.0165 3.97241 12.9466 4.58803 12.8235C4.79606 12.7829 4.96419 12.7046 5.11174 12.5784C5.37541 12.349 5.47941 12.0559 5.5544 11.7545C5.67172 11.2903 5.69469 10.8168 5.67171 10.3444C5.62696 9.46616 5.54958 8.59005 5.51087 7.71289C5.49152 7.25919 5.5145 6.80236 5.54111 6.34866C5.56046 6.01386 5.80598 5.82404 6.17608 5.75729C6.4591 5.70723 6.74572 5.66969 7.03237 5.63631C7.4835 5.58416 7.93587 5.5414 8.3616 5.39642C8.93489 5.20034 9.39086 4.89371 9.68597 4.41185C9.91939 4.03116 9.98348 3.62334 9.99799 3.21032C10.0319 2.27893 9.63879 1.51024 8.73652 0.960588ZM7.4315 4.28771C7.08801 4.41391 6.73244 4.46919 6.51111 4.47128C5.66085 4.4984 5.2339 4.21889 5.07787 3.62856C4.95209 3.14983 5.02708 2.68673 5.29437 2.25702C5.45765 1.9921 5.7189 1.80853 6.08053 1.75846C6.66228 1.67711 7.22106 1.69171 7.67823 2.07136C8.06406 2.3926 8.26846 2.79103 8.26 3.24785C8.25032 3.73702 7.97092 4.08954 7.4315 4.28771Z" fill="#5CCF54"/>
<path d="M22.9756 11.8632C22.9292 11.6337 22.8676 11.4073 22.8107 11.1798C22.6609 10.5709 22.5238 9.95778 22.3578 9.35199C22.05 8.22845 21.7352 7.10595 21.4031 5.98764C20.9954 4.61151 20.5239 3.25216 19.8967 1.94102C19.6551 1.43584 19.3787 0.94533 18.9839 0.517713C18.8178 0.337443 18.6076 0.219014 18.3648 0.155081C18.143 0.0963881 17.9142 0.0481804 17.6843 0.0282669C16.8434 -0.0440507 16.0153 0.0177892 15.2128 0.267233C14.7296 0.417108 14.3382 0.656076 14.1443 1.11094C13.9619 1.53751 13.7378 1.95044 13.5578 2.37911C12.919 3.89254 12.444 5.45104 12.0387 7.02526C11.7355 8.20016 11.4765 9.38554 11.2106 10.5688C11.1235 10.9608 11.0654 11.358 11.012 11.7542C10.933 12.3369 11.2477 12.7205 11.8819 12.8348C12.7425 12.9899 13.6135 13.0308 14.4869 12.9784C14.8539 12.9564 15.2209 12.8819 15.5809 12.8054C15.9433 12.7289 16.1837 12.5308 16.2395 12.1776C16.2731 11.9638 16.3382 11.7531 16.3858 11.5414C16.5217 10.9377 16.6448 10.3309 16.7934 9.73036C16.8724 9.41175 17.035 9.12665 17.4252 9.03023C17.5844 8.9904 17.7539 8.97365 17.92 8.9684C18.2162 8.95897 18.5135 8.96631 18.8108 8.96631V8.9464C19.1267 8.9464 19.4426 8.95269 19.7585 8.9443C20.0222 8.93801 20.1999 9.05224 20.3241 9.24509C20.3892 9.34466 20.4484 9.45261 20.4821 9.56371C20.575 9.8687 20.6574 10.1758 20.7364 10.4839C20.8851 11.0604 21.0268 11.6368 21.1754 12.2133C21.237 12.4543 21.4298 12.5665 21.6865 12.6147C21.9582 12.666 22.2277 12.6482 22.4843 12.5727C22.9547 12.4344 23.0546 12.2499 22.9756 11.8632ZM18.8886 7.79141C18.5472 7.79351 18.2011 7.79139 17.8654 7.74318C17.4113 7.67715 17.2034 7.40152 17.2963 7.0022C17.5042 6.11448 17.7295 5.22989 17.9583 4.34636C18.0001 4.18286 18.0396 4.0005 18.251 3.90722C18.4287 3.98268 18.4554 4.12102 18.4984 4.24575C18.7388 4.94482 18.9746 5.64599 19.2092 6.3461C19.2812 6.56096 19.3474 6.77791 19.4124 6.99486C19.431 7.05879 19.445 7.12483 19.4496 7.19086C19.4786 7.59228 19.3451 7.78932 18.8886 7.79141Z" fill="#5CCF54"/>
<path d="M28.3954 6.51186C28.4181 7.29298 28.5161 8.10551 28.8317 8.88326C29.0396 9.39615 29.3109 9.87539 29.765 10.2424C30.4546 10.8013 31.2781 10.7934 31.994 10.5005C32.3047 10.3737 32.4828 10.1066 32.631 9.83385C32.7816 9.55551 32.9107 9.2671 33.0469 8.98204C33.1927 8.67789 33.3684 8.39059 33.6445 8.17511C33.9421 7.94392 34.3006 7.88555 34.597 8.05951C34.7751 8.16388 34.8528 8.31538 34.903 8.49158C35.0655 9.05385 35.0189 9.61051 34.8002 10.147C34.2158 11.5824 33.1365 12.515 31.5243 12.8697C30.5036 13.0941 29.4973 13.0234 28.5054 12.698C27.4991 12.3669 26.5991 11.8877 25.8498 11.1683C25.0395 10.3916 24.5375 9.46126 24.2829 8.41639C24.02 7.34011 23.9125 6.2481 24.081 5.14824C24.3547 3.36042 25.3323 1.99683 26.978 1.05298C27.9437 0.49856 28.9966 0.17087 30.1212 0.0373166C30.996 -0.0659349 31.8446 0.0451683 32.6454 0.369513C33.6576 0.780274 34.1871 1.55689 34.3843 2.54564C34.4201 2.72633 34.4213 2.91824 34.3998 3.10117C34.3687 3.37052 34.2086 3.56133 33.9206 3.6455C33.611 3.73528 33.3361 3.67916 33.0971 3.47491C32.9286 3.33125 32.8437 3.14383 32.7804 2.94406C32.7398 2.81612 32.7075 2.68482 32.6573 2.56024C32.4589 2.07317 32.0705 1.77798 31.5267 1.72973C30.9279 1.67698 30.3806 1.81839 29.9288 2.23701C29.348 2.77459 28.9966 3.42889 28.7587 4.14267C28.5078 4.89685 28.4074 5.67574 28.3978 6.50848L28.3954 6.51186Z" fill="#5CCF54"/>
<path d="M41.1036 0.0375201C42.2252 0.0243016 43.3467 0.00776895 44.4683 5.82122e-05C44.65 -0.00104332 44.8387 0.013282 45.0124 0.060648C45.4852 0.188426 45.7405 0.526587 45.844 0.95949C46.0327 1.75259 46.0477 2.55562 45.9027 3.35753C45.8797 3.48531 45.8279 3.60867 45.7888 3.73425C45.6773 4.09886 45.3908 4.27512 45.025 4.33461C44.6178 4.4007 44.206 4.43813 43.7953 4.4833C43.4399 4.52185 43.081 4.53837 42.7267 4.59014C42.2631 4.65734 42.1423 4.78511 42.1113 5.22242C42.0952 5.45705 42.0975 5.695 42.1182 5.92963C42.2735 7.67335 42.438 9.41598 42.5933 11.1597C42.6335 11.6157 42.6243 12.0696 42.4598 12.508C42.3229 12.8726 42.0848 13.0235 41.6834 12.9971C41.5373 12.9871 41.3901 12.9684 41.2463 12.942C40.7712 12.8528 40.4813 12.5763 40.3904 12.1269C40.3467 11.9132 40.3191 11.6939 40.3122 11.4758C40.2708 10.0681 40.2398 8.65923 40.1995 7.25036C40.1845 6.73485 40.1604 6.21822 40.1247 5.70381C40.1109 5.50443 40.0649 5.30614 40.0143 5.11117C39.9579 4.88976 39.7969 4.7642 39.5691 4.6904C39.0653 4.52627 38.5454 4.48991 38.0208 4.48219C37.7263 4.47779 37.4318 4.4833 37.1385 4.46348C36.7934 4.43924 36.4829 4.31477 36.3011 4.02507C36.1907 3.84882 36.1159 3.64173 36.0745 3.43904C35.956 2.85633 35.9905 2.26923 36.0964 1.68982C36.1573 1.35495 36.2563 1.0256 36.3517 0.697338C36.4541 0.348152 36.721 0.155366 37.0822 0.101391C37.3893 0.0562278 37.7033 0.0342101 38.0139 0.032007C39.0434 0.0231947 40.073 0.0286992 41.1025 0.0286992C41.1025 0.0320038 41.1025 0.0342155 41.1025 0.0375201H41.1036Z" fill="#5CCF54"/>
<path d="M58 5.81849C57.9454 6.64861 57.9169 7.48219 57.8278 8.30885C57.7257 9.24718 57.4371 10.1337 56.8706 10.9212C56.3171 11.6903 55.5773 12.2268 54.6794 12.5642C53.6046 12.9683 52.4811 13.0305 51.3446 12.989C50.4301 12.9545 49.5536 12.7645 48.7556 12.3247C47.9195 11.8642 47.2865 11.2321 47.0537 10.2984C47.0097 10.1234 47.005 9.93681 47.0003 9.7549C46.9836 9.09864 47.7959 8.82118 48.2959 9.07908C48.5703 9.2207 48.7342 9.4498 48.8814 9.69849C49.0738 10.0243 49.2615 10.3524 49.4551 10.6783C49.6178 10.9511 49.8351 11.1803 50.1023 11.3622C50.7377 11.7951 51.6237 11.5809 51.9752 10.9085C52.2768 10.3317 52.3707 9.70771 52.3944 9.07332C52.4051 8.80045 52.3766 8.5253 52.3552 8.25128C52.3255 7.88285 52.1462 7.64335 51.7448 7.56621C51.3268 7.48562 50.9147 7.37512 50.499 7.2761C49.898 7.13334 49.3125 6.95831 48.8066 6.59103C48.2045 6.15583 47.7781 5.58938 47.4967 4.92851C47.0299 3.82784 46.9028 2.68226 47.1012 1.5079C47.1404 1.27648 47.2247 1.04853 47.3126 0.828623C47.3862 0.646712 47.5442 0.536169 47.752 0.525807C48.1047 0.508537 48.4527 0.530412 48.7734 0.698507C48.9788 0.805582 49.1202 0.964468 49.1404 1.19013C49.1712 1.53553 49.1974 1.88208 49.1938 2.22864C49.1902 2.68572 49.1451 3.14279 49.1404 3.59987C49.1344 4.12948 49.252 4.63261 49.5453 5.09315C49.8398 5.55483 50.2698 5.83345 50.7947 5.98428C50.9752 6.03609 51.1688 6.0453 51.3553 6.07639C51.7792 6.14892 52.1569 5.81275 52.221 5.51571C52.2567 5.34991 52.2745 5.16798 52.2436 5.00334C52.1189 4.32866 51.9562 3.65975 51.8386 2.98277C51.7365 2.39443 51.702 1.80148 51.8196 1.20739C51.9301 0.648991 52.284 0.327787 52.8422 0.190779C53.7958 -0.0440939 54.7602 -0.0429561 55.7257 0.0905989C56.1319 0.147014 56.5202 0.281736 56.8741 0.480917C57.1354 0.627137 57.3029 0.859704 57.4014 1.14063C57.5915 1.68176 57.6829 2.24245 57.7589 2.8043C57.8955 3.80366 57.9477 4.80877 57.9976 5.81849H58Z" fill="#5CCF54"/>
<path d="M11.9988 23.1976C11.9352 24.6275 11.8786 26.0645 11.8034 27.5005C11.7768 28.0135 11.6935 28.5254 11.6553 29.0383C11.6183 29.5481 11.2135 29.7198 10.8099 29.7722C10.5843 29.801 10.3472 29.7907 10.1182 29.7712C9.74232 29.7393 9.53992 29.5666 9.45664 29.2377C9.35486 28.8317 9.40227 28.4246 9.44275 28.0176C9.47629 27.6835 9.51332 27.3504 9.54339 27.0174C9.55148 26.929 9.55032 26.8365 9.53413 26.7491C9.48324 26.4644 9.31786 26.3996 9.05762 26.5672C8.93155 26.6484 8.81474 26.744 8.7118 26.8478C8.36482 27.1983 8.03171 27.5591 7.68473 27.9086C7.20821 28.3887 6.68543 28.8234 6.10135 29.2028C5.16682 29.8103 4.11662 30.0508 2.97043 29.9912C2.69516 29.9768 2.41991 29.9367 2.14695 29.9007C1.59525 29.8277 1.20778 29.5409 0.917474 29.139C0.578591 28.6713 0.383135 28.1532 0.261692 27.6136C-0.00432559 26.4356 -0.035556 25.2453 0.0280569 24.0508C0.0893565 22.8985 0.210796 21.7514 0.429393 20.6155C0.605196 19.6986 0.814546 18.7858 1.0424 17.8771C1.14302 17.4752 1.4102 17.1648 1.91911 17.0918C2.08334 17.0682 2.24642 17.0363 2.41066 17.0239C3.14394 16.9684 3.87373 17.0075 4.58736 17.1617C4.93433 17.2367 5.27784 17.3498 5.59475 17.4947C6.04004 17.6972 6.24939 18.0478 6.26905 18.4949C6.28293 18.8136 6.16033 19.1055 6.09325 19.4097C5.96371 19.9936 5.81682 20.5764 5.71504 21.1644C5.51263 22.3434 5.38079 23.5307 5.35072 24.7241C5.34378 25.0171 5.33221 25.3131 5.37501 25.602C5.46406 26.2033 6.05623 26.4726 6.66692 26.1868C7.00002 26.0306 7.31461 25.8394 7.61995 25.6431C8.00047 25.3984 8.37638 25.1456 8.72798 24.8701C9.27158 24.4435 9.65789 23.9388 9.60122 23.2532C9.59196 23.1473 9.60584 23.0404 9.60006 22.9345C9.5538 22.0865 9.50754 21.2374 9.45896 20.3894C9.43583 19.9895 9.40227 19.5907 9.38492 19.1908C9.36988 18.8465 9.38957 18.5042 9.52258 18.1752C9.78859 17.5174 10.6977 17.2974 11.2979 17.7517C11.387 17.8185 11.4564 17.9131 11.5131 18.0046C11.6923 18.2934 11.8103 18.5987 11.823 18.9349C11.8786 20.3554 11.941 21.775 12 23.2048L11.9988 23.1976Z" fill="#5CCF54"/>
<path d="M18.1274 24.5302C18.1743 25.9054 18.227 27.2816 18.2645 28.6579C18.2762 29.0582 18.1673 29.4363 17.763 29.6676C17.5873 29.769 17.3729 29.8303 17.1667 29.8715C16.5597 29.9898 15.9446 30.0194 15.3236 29.9887C14.6863 29.9581 14.2586 29.6761 13.9938 29.1659C13.7021 28.604 13.5615 28.0062 13.4443 27.4021C13.2428 26.367 13.1479 25.3223 13.0893 24.2746C13.0096 22.8656 12.9839 21.4566 13.0096 20.0465C13.019 19.5099 13.0366 18.9723 13.0588 18.4358C13.0834 17.8316 13.4209 17.4249 14.0723 17.2486C14.3922 17.1619 14.7273 17.1007 15.0612 17.0722C16.3418 16.9634 17.6248 16.9813 18.9042 17.1007C19.5826 17.1641 20.2575 17.2665 20.93 17.369C21.1573 17.4038 21.3787 17.483 21.5932 17.5633C21.8931 17.6763 22.015 17.8823 21.9985 18.1876C21.9845 18.4506 21.8076 18.6713 21.5193 18.7484C21.36 18.7906 21.1878 18.8202 21.0226 18.8181C20.6113 18.8107 20.2001 18.7822 19.7888 18.7621C19.5463 18.7505 19.3026 18.723 19.06 18.7273C18.6089 18.7347 18.3582 18.91 18.2727 19.3071C18.1942 19.6684 18.1239 20.037 18.1122 20.4035C18.0864 21.276 18.0981 22.1484 18.0958 23.0208C18.0946 23.5246 18.0958 24.0274 18.0958 24.5312C18.1063 24.5312 18.1169 24.5312 18.1274 24.5312V24.5302Z" fill="#5CCF54"/>
<path d="M33.0644 18.2826C32.5454 17.8811 31.9106 17.6387 31.224 17.4733C30.0276 17.1851 28.7967 17.0572 27.5471 17C27.0481 17.026 26.549 17.0416 26.0513 17.078C25.4778 17.1217 24.9175 17.2143 24.3945 17.4161C23.7477 17.6668 23.3219 18.0194 23.2447 18.6238C23.1276 19.5455 23.0451 20.4682 23.0185 21.3941C22.956 23.562 23.0531 25.7257 23.2939 27.8853C23.3312 28.2286 23.4137 28.576 23.5468 28.9037C23.7624 29.4373 24.1789 29.8399 24.9494 29.9294C26.0047 30.0511 27.0481 30.0188 28.0821 29.8066C28.436 29.7348 28.6795 29.5747 28.8499 29.3271C29.132 28.9131 29.1972 28.4626 29.2265 28.007C29.2771 27.1956 29.1959 26.3873 29.1347 25.579C29.0881 24.9684 29.0229 24.3557 29.0469 23.7461C29.0761 23.0127 29.148 22.8286 30.3018 22.6933C30.8381 22.6299 31.3784 22.5779 31.904 22.4822C32.5561 22.3646 33.0884 22.0848 33.4809 21.6541C33.8935 21.2016 33.9986 20.6825 34 20.1468C34.0039 19.4342 33.7311 18.7976 33.0644 18.2826ZM32.0743 20.386C32.0091 20.8323 31.6831 21.1267 31.1787 21.3056C30.7875 21.445 30.3643 21.4856 30.0223 21.4908C29.1693 21.4856 28.7581 21.2328 28.5851 20.6492C28.4227 20.0989 28.5318 19.5798 28.9697 19.1252C29.0894 19.0004 29.2837 18.8953 29.4714 18.8392C29.9411 18.6998 30.4255 18.7018 30.9073 18.8277C31.2799 18.9245 31.5394 19.1336 31.743 19.3759C31.9958 19.6787 32.1289 20.0157 32.0743 20.386Z" fill="#5CCF54"/>
<path d="M47.9697 28.8396C47.7706 28.0928 47.584 27.343 47.366 26.5994C47.0017 25.3552 46.64 24.1089 46.2341 22.8741C45.798 21.5493 45.3178 20.2349 44.6472 18.9739C44.4002 18.5089 44.1355 18.0513 43.7662 17.6418C43.5166 17.3632 43.1902 17.183 42.7793 17.1055C41.9802 16.9568 41.1785 16.9767 40.3781 17.094C39.9509 17.1558 39.5349 17.2563 39.1454 17.4187C38.8782 17.5307 38.6476 17.6795 38.519 17.9057C38.3211 18.2513 38.1308 18.6011 37.9556 18.9551C37.459 19.9563 37.0632 20.9879 36.7292 22.0331C36.3965 23.0783 36.0675 24.1257 35.7927 25.1824C35.499 26.3114 35.2621 27.4519 35.0213 28.5903C34.9797 28.7893 35.0037 29.0071 35.0528 29.2072C35.1335 29.5413 35.4095 29.7298 35.8104 29.8073C36.5225 29.9445 37.2447 29.977 38.1711 30C38.4535 29.9811 38.9387 29.9644 39.4152 29.9068C39.6988 29.8712 39.9786 29.7842 40.2458 29.6931C40.4575 29.6209 40.5861 29.4742 40.6315 29.2752C40.7134 28.916 40.8155 28.5599 40.905 28.2018C41.0285 27.7053 41.1432 27.2058 41.273 26.7104C41.3953 26.2464 41.7003 26.0275 42.265 25.9783C42.3343 25.972 42.4049 25.9679 42.4755 25.9668C43.1612 25.9595 43.8456 25.9553 44.53 25.9459C44.6926 25.9438 44.8212 25.9919 44.9396 26.0789C45.1136 26.2056 45.2119 26.37 45.2623 26.5491C45.4388 27.1639 45.5976 27.7818 45.774 28.3966C45.8597 28.6961 45.9669 28.9904 46.0677 29.2857C46.1257 29.4564 46.2845 29.5392 46.4786 29.5832C46.8189 29.6596 47.1605 29.645 47.4907 29.5538C47.9268 29.4345 48.0693 29.2124 47.9697 28.8396ZM43.7183 24.7729C43.5506 24.7991 43.378 24.8001 43.1511 24.8169C42.9557 24.798 42.7024 24.7854 42.4566 24.7467C41.9096 24.6608 41.7054 24.3739 41.8302 23.9246C42.0432 23.1548 42.2411 22.3819 42.4515 21.6111C42.4982 21.4414 42.5562 21.2717 42.6356 21.1115C42.6734 21.0361 42.7654 20.9439 42.8511 20.9282C42.9847 20.9041 43.0175 21.0298 43.0528 21.1115C43.2002 21.4655 43.3464 21.8195 43.48 22.1766C43.6704 22.6846 43.8569 23.1946 44.0271 23.7078C44.0951 23.9141 44.143 24.1309 44.1519 24.3445C44.1619 24.6053 44.0271 24.7247 43.7183 24.7729Z" fill="#5CCF54"/>
<path d="M57.9945 21.9216C57.975 20.763 57.938 19.6034 57.7718 18.4522C57.7251 18.1313 57.586 17.8604 57.3155 17.6729C57.1069 17.5291 56.8765 17.4051 56.6397 17.3082C56.0976 17.0842 55.5152 17.0332 54.9329 17.0092C54.0257 16.9717 53.1261 17.0499 52.2374 17.2197C51.6073 17.3405 50.9804 17.4874 50.4187 17.8021C49.8483 18.1209 49.4083 18.5522 49.1856 19.1617C48.9802 19.7264 48.9792 20.2994 49.103 20.8766C49.1975 21.3204 49.4203 21.6965 49.782 21.9945C50.2188 22.356 50.7425 22.5123 51.302 22.5852C51.5128 22.6134 51.7235 22.6446 51.9321 22.6738C51.9278 22.7092 51.9299 22.7207 51.9256 22.7248C51.8898 22.7602 51.8539 22.7957 51.8148 22.828C50.9967 23.5073 50.3807 24.3314 49.9157 25.2607C49.4159 26.2588 49.1747 27.3246 49.0215 28.4113C48.977 28.7249 48.9965 29.0416 49.128 29.3406C49.1606 29.4146 49.2051 29.4875 49.2594 29.55C49.5778 29.9157 49.9983 29.9595 50.4426 29.8501C50.9141 29.7344 51.0858 29.5125 51.1097 29.052C51.1466 28.3321 51.2075 27.6143 51.3661 26.9079C51.5323 26.1755 51.7539 25.4607 52.2461 24.8575C52.3863 24.6856 52.5666 24.5262 52.7622 24.4158C53.15 24.198 53.5238 24.3762 53.589 24.8002C53.6226 25.019 53.6227 25.2482 53.5944 25.467C53.526 25.9931 53.4325 26.5151 53.3489 27.0392C53.2619 27.5788 53.1511 28.1175 53.187 28.6676C53.2 28.8801 53.2424 29.0937 53.2956 29.301C53.3662 29.575 53.5737 29.7292 53.853 29.8021C54.7406 30.0355 55.6369 30.0553 56.5376 29.899C56.7429 29.8626 56.9211 29.7646 57.0808 29.6261C57.4122 29.3375 57.5936 28.9697 57.6534 28.5655C57.7522 27.8945 57.825 27.2173 57.8663 26.5401C57.9619 25.0023 58.0184 23.4625 57.9945 21.9216ZM53.4075 20.7432C53.2326 21.2798 52.886 21.4996 52.2896 21.4986C52.019 21.4486 51.7398 21.4204 51.4791 21.3423C50.7522 21.1245 50.4165 20.4796 50.6545 19.791C50.6925 19.6816 50.7359 19.5722 50.7924 19.4711C51.2629 18.623 52.1853 18.6043 52.7807 18.8408C52.9534 18.9096 53.0946 19.02 53.1892 19.1721C53.4955 19.666 53.5868 20.1921 53.4075 20.7432Z" fill="#5CCF54"/>
</svg>
