<svg width="262" height="28" viewBox="0 0 262 28" fill="none" xmlns="http://www.w3.org/2000/svg">
<path d="M45.6219 25.3497C45.5213 24.8597 45.3881 24.3763 45.2648 23.8907C44.9405 22.5905 44.6438 21.2813 44.2842 19.9878C43.6178 17.5889 42.9363 15.1921 42.2172 12.8043C41.3345 9.866 40.3136 6.96353 38.9558 4.16397C38.4327 3.08533 37.8343 2.03799 36.9793 1.12495C36.6197 0.740037 36.1646 0.487168 35.639 0.350658C35.1588 0.225338 34.6634 0.122406 34.1655 0.0798865C32.345 -0.0745255 30.5521 0.0575145 28.8145 0.590124C27.7684 0.910138 26.921 1.42038 26.5011 2.39161C26.1063 3.30242 25.621 4.1841 25.2312 5.09938C23.8482 8.33085 22.8197 11.6586 21.9422 15.0198C21.2859 17.5285 20.7251 20.0595 20.1493 22.586C19.9607 23.423 19.8349 24.2711 19.7192 25.117C19.5483 26.3612 20.2297 27.1803 21.6027 27.4242C23.466 27.7554 25.3519 27.8427 27.2429 27.7309C28.0375 27.6839 28.8321 27.5249 29.6116 27.3616C30.3962 27.1982 30.9167 26.7753 31.0374 26.0211C31.1103 25.5646 31.2511 25.1148 31.3542 24.6627C31.6484 23.3737 31.9149 22.078 32.2368 20.7957C32.4078 20.1154 32.7598 19.5067 33.6047 19.3008C33.9492 19.2158 34.3164 19.18 34.6759 19.1688C35.3172 19.1487 35.9609 19.1643 36.6047 19.1643V19.1218C37.2886 19.1218 37.9726 19.1352 38.6565 19.1173C39.2273 19.1039 39.6121 19.3478 39.8812 19.7596C40.022 19.9722 40.1502 20.2027 40.2231 20.4399C40.4243 21.0911 40.6028 21.7468 40.7738 22.4047C41.0957 23.6356 41.4024 24.8664 41.7243 26.0972C41.8576 26.6119 42.275 26.8514 42.8308 26.9543C43.4192 27.064 44.0025 27.0259 44.5582 26.8648C45.5766 26.5694 45.7929 26.1755 45.6219 25.3497ZM36.7731 16.6557C36.0338 16.6602 35.2845 16.6557 34.5578 16.5527C33.5746 16.4117 33.1245 15.8232 33.3256 14.9706C33.7758 13.0751 34.2636 11.1864 34.7589 9.29984C34.8495 8.95074 34.935 8.56136 35.3926 8.3622C35.7773 8.52332 35.8352 8.81871 35.9283 9.08502C36.4488 10.5777 36.9592 12.0748 37.4671 13.5697C37.623 14.0285 37.7664 14.4917 37.9072 14.9549C37.9474 15.0914 37.9776 15.2324 37.9877 15.3734C38.0505 16.2305 37.7613 16.6512 36.7731 16.6557Z" fill="#5CCF54"/>
<path d="M120.999 12.2606C120.884 13.8741 120.823 15.4943 120.635 17.1011C120.419 18.925 119.808 20.6481 118.608 22.1788C117.436 23.6737 115.87 24.7165 113.969 25.3722C111.693 26.1577 109.314 26.2785 106.908 26.198C104.972 26.1308 103.116 25.7616 101.426 24.9067C99.6558 24.0116 98.3155 22.783 97.8227 20.9681C97.7296 20.628 97.7196 20.2654 97.7095 19.9118C97.6743 18.6362 99.3943 18.0969 100.453 18.5982C101.034 18.8735 101.381 19.3188 101.693 19.8022C102.1 20.4355 102.497 21.0733 102.907 21.7066C103.252 22.237 103.712 22.6823 104.278 23.0359C105.623 23.8773 107.499 23.4611 108.243 22.1542C108.882 21.033 109.08 19.8201 109.131 18.587C109.153 18.0567 109.093 17.5218 109.048 16.9892C108.985 16.2731 108.605 15.8076 107.755 15.6577C106.87 15.501 105.998 15.2862 105.117 15.0938C103.845 14.8163 102.605 14.4761 101.534 13.7622C100.259 12.9163 99.3565 11.8153 98.7606 10.5307C97.7724 8.39136 97.5033 6.1647 97.9232 3.88208C98.0062 3.43227 98.1847 2.9892 98.3708 2.56177C98.5267 2.20819 98.8612 1.99333 99.3012 1.97319C100.048 1.93962 100.785 1.98214 101.464 2.30886C101.899 2.51698 102.198 2.82581 102.241 3.26443C102.306 3.93579 102.361 4.60939 102.354 5.28298C102.346 6.17141 102.251 7.05982 102.241 7.94825C102.228 8.97766 102.477 9.9556 103.098 10.8507C103.722 11.7481 104.632 12.2897 105.744 12.5828C106.126 12.6835 106.536 12.7015 106.93 12.7619C107.828 12.9029 108.628 12.2494 108.764 11.6721C108.839 11.3498 108.877 10.9962 108.811 10.6762C108.547 9.3648 108.203 8.06465 107.954 6.74879C107.738 5.60525 107.665 4.45271 107.914 3.29798C108.147 2.21262 108.897 1.58829 110.079 1.32199C112.098 0.865466 114.14 0.867678 116.184 1.12727C117.044 1.23692 117.866 1.49878 118.616 1.88593C119.169 2.17014 119.523 2.62218 119.732 3.16822C120.134 4.22001 120.328 5.30984 120.489 6.40191C120.778 8.34437 120.889 10.298 120.994 12.2606H120.999Z" fill="#5CCF54"/>
<path d="M18.1639 2.14699C17.3894 1.6569 16.5344 1.31226 15.6242 1.06609C13.2052 0.405925 10.7283 0.0971268 8.70909 0.0859375C6.99415 0.0859375 5.78965 0.108299 4.60277 0.347749C3.39577 0.591676 2.25164 0.942999 1.32879 1.72625C0.903824 2.08654 0.632247 2.5207 0.571897 3.02422C0.398392 4.52582 0.212303 6.02969 0.121778 7.53801C-0.0391544 10.2033 -0.0240547 12.8708 0.0714992 15.5383C0.177111 18.4364 0.292804 21.3343 0.659932 24.2167C0.76303 25.0358 0.99936 25.8257 1.49976 26.5351C1.98256 27.2155 2.65148 27.6876 3.55421 27.8152C4.24572 27.9137 4.95228 27.9472 5.65384 27.9718C6.96645 28.0144 8.25893 27.8644 9.53885 27.6004C9.97136 27.5131 10.3209 27.3452 10.6277 27.0745C11.1759 26.5821 11.3921 25.9533 11.548 25.3066C11.7919 24.3107 11.8397 23.2947 11.7919 22.281C11.6989 20.3967 11.538 18.5169 11.4575 16.6349C11.4173 15.6614 11.465 14.6812 11.5204 13.7077C11.5606 12.9894 12.0711 12.5821 12.8405 12.4389C13.4289 12.3315 14.0248 12.2509 14.6208 12.1793C15.5587 12.0674 16.4992 11.9757 17.3844 11.6646C18.5763 11.2439 19.5243 10.586 20.1378 9.55208C20.6231 8.73526 20.7564 7.86026 20.7865 6.97407C20.857 4.97566 20.0397 3.32634 18.1639 2.14699ZM15.4506 9.28573C14.7365 9.55651 13.9972 9.67512 13.5371 9.6796C11.7693 9.73778 10.8816 9.13807 10.5573 7.87145C10.2958 6.84427 10.4517 5.85063 11.0074 4.92863C11.3469 4.36022 11.89 3.96635 12.6419 3.85893C13.8514 3.68438 15.0131 3.71571 15.9636 4.53029C16.7658 5.21955 17.1907 6.07442 17.1731 7.0546C17.153 8.10415 16.5721 8.86054 15.4506 9.28573Z" fill="#5CCF54"/>
<path d="M56.5116 13.676C56.5594 15.2335 56.7656 16.8537 57.4295 18.4046C57.867 19.4273 58.4378 20.3828 59.3933 21.1146C60.8442 22.2291 62.5768 22.2134 64.083 21.6293C64.7368 21.3765 65.1115 20.8438 65.4233 20.3C65.7401 19.745 66.0117 19.1699 66.2983 18.6015C66.6051 17.9951 66.9748 17.4222 67.5556 16.9925C68.1818 16.5315 68.9362 16.4151 69.5598 16.762C69.9345 16.9701 70.0979 17.2722 70.2035 17.6236C70.5455 18.7447 70.4474 19.8547 69.9873 20.9244C68.7576 23.7866 66.4869 25.6463 63.0948 26.3534C60.9473 26.801 58.83 26.66 56.7429 26.011C54.6257 25.3509 52.7322 24.3953 51.1556 22.9609C49.4507 21.4123 48.3946 19.5571 47.859 17.4736C47.3058 15.3275 47.0795 13.1501 47.434 10.957C48.0099 7.39206 50.0668 4.67307 53.5294 2.79103C55.5612 1.68553 57.7764 1.03212 60.1427 0.765815C61.9833 0.559933 63.7687 0.781472 65.4535 1.42821C67.5833 2.24727 68.6973 3.79584 69.1122 5.76739C69.1876 6.12769 69.1901 6.51035 69.1449 6.87512C69.0795 7.4122 68.7425 7.79266 68.1365 7.9605C67.4852 8.13953 66.9069 8.02763 66.404 7.62034C66.0494 7.3339 65.8709 6.96018 65.7376 6.56184C65.6521 6.30673 65.5842 6.04491 65.4786 5.79651C65.0612 4.82528 64.2439 4.23669 63.0998 4.14047C61.84 4.03529 60.6884 4.31726 59.7378 5.15198C58.5158 6.22391 57.7765 7.52858 57.2761 8.95186C56.748 10.4557 56.5368 12.0088 56.5167 13.6693L56.5116 13.676Z" fill="#5CCF54"/>
<path d="M83.391 0.707084C85.8427 0.68023 88.2944 0.646643 90.7461 0.630978C91.1434 0.62874 91.5558 0.657843 91.9355 0.754071C92.969 1.01366 93.5272 1.70066 93.7535 2.58014C94.1659 4.1914 94.1986 5.8228 93.8818 7.45196C93.8315 7.71155 93.7183 7.96217 93.6328 8.21729C93.3889 8.95802 92.7628 9.31612 91.9631 9.43696C91.073 9.57124 90.1728 9.64729 89.2751 9.73904C88.4981 9.81737 87.7135 9.85093 86.939 9.95611C85.9256 10.0926 85.6616 10.3522 85.5937 11.2406C85.5585 11.7173 85.5635 12.2007 85.6088 12.6774C85.9483 16.2199 86.3079 19.7602 86.6473 23.3027C86.7354 24.2292 86.7152 25.1512 86.3556 26.0418C86.0564 26.7826 85.5359 27.0891 84.6583 27.0354C84.3389 27.0153 84.0171 26.9773 83.7028 26.9235C82.6643 26.7423 82.0306 26.1806 81.8319 25.2676C81.7363 24.8334 81.676 24.388 81.6609 23.9449C81.5704 21.085 81.5025 18.2228 81.4145 15.3606C81.3818 14.3132 81.329 13.2637 81.2511 12.2186C81.2209 11.8136 81.1203 11.4107 81.0096 11.0146C80.8864 10.5648 80.5344 10.3097 80.0365 10.1598C78.9351 9.82635 77.7986 9.75247 76.6519 9.7368C76.0082 9.72785 75.3644 9.73906 74.7232 9.69878C73.9688 9.64954 73.2899 9.39667 72.8926 8.80811C72.6512 8.45006 72.4877 8.02932 72.3972 7.61756C72.1382 6.43373 72.2137 5.24098 72.445 4.06387C72.5783 3.38356 72.7945 2.71444 73.0033 2.04756C73.2271 1.33816 73.8104 0.946498 74.6 0.836843C75.2714 0.745091 75.9579 0.70036 76.6368 0.695884C78.8874 0.677981 81.1379 0.689164 83.3885 0.689164C83.3885 0.695878 83.3885 0.700371 83.3885 0.707084H83.391Z" fill="#5CCF54"/>
<path d="M167.104 13.3488C166.965 16.4284 166.842 19.5236 166.679 22.6165C166.621 23.7213 166.439 24.8239 166.356 25.9286C166.276 27.0268 165.395 27.3965 164.517 27.5094C164.026 27.5714 163.511 27.5493 163.012 27.5072C162.195 27.4386 161.754 27.0666 161.573 26.3581C161.352 25.4836 161.455 24.6069 161.543 23.7302C161.616 23.0106 161.696 22.2932 161.762 21.5759C161.779 21.3855 161.777 21.1863 161.742 20.9981C161.631 20.3848 161.271 20.2453 160.705 20.6062C160.431 20.7811 160.177 20.987 159.953 21.2106C159.198 21.9656 158.473 22.7427 157.718 23.4955C156.682 24.5294 155.544 25.4659 154.274 26.2828C152.241 27.5913 149.956 28.1094 147.462 27.981C146.863 27.95 146.265 27.8636 145.671 27.7862C144.471 27.629 143.628 27.0113 142.996 26.1456C142.259 25.1382 141.834 24.0224 141.569 22.86C140.991 20.3228 140.923 17.759 141.061 15.1864C141.194 12.7045 141.459 10.2337 141.934 7.78726C142.317 5.81239 142.772 3.84634 143.268 1.88918C143.487 1.02351 144.068 0.354908 145.175 0.197715C145.532 0.146793 145.887 0.0781254 146.244 0.0515576C147.84 -0.0679976 149.427 0.0161533 150.98 0.348251C151.735 0.509872 152.482 0.753408 153.171 1.06558C154.14 1.50173 154.596 2.2567 154.638 3.21978C154.669 3.90612 154.402 4.53487 154.256 5.19021C153.974 6.44775 153.655 7.7031 153.433 8.9695C152.993 11.5089 152.706 14.0661 152.641 16.6366C152.626 17.2675 152.6 17.9052 152.693 18.5273C152.887 19.8225 154.175 20.4025 155.504 19.7871C156.229 19.4505 156.913 19.0387 157.577 18.6158C158.405 18.0889 159.223 17.5443 159.988 16.9509C161.171 16.0321 162.011 14.9451 161.888 13.4683C161.868 13.2403 161.898 13.01 161.885 12.782C161.784 10.9554 161.684 9.12668 161.578 7.30014C161.528 6.4389 161.455 5.5799 161.417 4.71866C161.384 3.97697 161.427 3.23974 161.717 2.53126C162.295 1.11431 164.273 0.640495 165.579 1.61908C165.773 1.76299 165.924 1.96666 166.047 2.16371C166.437 2.78584 166.694 3.4434 166.721 4.16738C166.842 7.2271 166.978 10.2846 167.106 13.3643L167.104 13.3488Z" fill="#5CCF54"/>
<path d="M238.638 25.472C238.24 23.8934 237.868 22.3082 237.432 20.7363C236.705 18.106 235.983 15.4714 235.173 12.8611C234.302 10.0604 233.343 7.28186 232.005 4.61622C231.512 3.63321 230.983 2.66571 230.246 1.80004C229.748 1.21112 229.096 0.830291 228.276 0.666456C226.681 0.35207 225.08 0.394166 223.483 0.642132C222.63 0.772757 221.799 0.985267 221.022 1.32844C220.488 1.56533 220.028 1.87975 219.771 2.35797C219.376 3.08859 218.996 3.82806 218.646 4.57639C217.655 6.69296 216.865 8.87371 216.198 11.0833C215.534 13.2928 214.877 15.5068 214.329 17.7407C213.742 20.1274 213.269 22.5384 212.789 24.945C212.706 25.3657 212.753 25.8262 212.852 26.2491C213.013 26.9553 213.564 27.3538 214.364 27.5177C215.785 27.8077 217.227 27.8764 219.077 27.9251C219.64 27.8852 220.609 27.8498 221.56 27.728C222.126 27.6527 222.685 27.4689 223.218 27.2763C223.641 27.1236 223.898 26.8136 223.988 26.3929C224.152 25.6336 224.356 24.8808 224.534 24.1236C224.781 23.0742 225.01 22.0181 225.269 20.9709C225.513 19.9901 226.122 19.5274 227.249 19.4233C227.388 19.41 227.529 19.4012 227.669 19.399C229.038 19.3835 230.405 19.3747 231.771 19.3547C232.095 19.3503 232.352 19.4521 232.589 19.6359C232.936 19.9038 233.132 20.2514 233.233 20.63C233.585 21.9296 233.902 23.2358 234.254 24.5354C234.425 25.1686 234.639 25.7908 234.841 26.4151C234.956 26.776 235.273 26.9509 235.661 27.0439C236.34 27.2055 237.022 27.1745 237.681 26.9819C238.552 26.7295 238.836 26.2601 238.638 25.472ZM230.15 16.875C229.816 16.9304 229.471 16.9326 229.018 16.9681C228.628 16.9282 228.122 16.9016 227.632 16.8197C226.54 16.6381 226.132 16.0315 226.381 15.0817C226.806 13.4545 227.201 11.8205 227.622 10.191C227.715 9.83236 227.83 9.47369 227.989 9.13495C228.065 8.97554 228.248 8.78071 228.419 8.7475C228.686 8.69658 228.751 8.96226 228.822 9.13495C229.116 9.88327 229.408 10.6316 229.675 11.3866C230.055 12.4604 230.427 13.5386 230.767 14.6234C230.903 15.0596 230.998 15.5179 231.016 15.9695C231.036 16.5208 230.767 16.7732 230.15 16.875Z" fill="#5CCF54"/>
<path d="M261.987 10.5855C261.942 8.12353 261.857 5.65935 261.472 3.2129C261.363 2.53099 261.041 1.95536 260.415 1.55684C259.932 1.25131 259.398 0.987849 258.85 0.781949C257.594 0.305942 256.245 0.197485 254.897 0.146563C252.796 0.0668595 250.712 0.232913 248.654 0.593792C247.195 0.850614 245.743 1.16275 244.442 1.83138C243.121 2.50885 242.102 3.42546 241.586 4.72064C241.11 5.92062 241.108 7.1383 241.395 8.36485C241.614 9.30801 242.13 10.1072 242.967 10.7404C243.979 11.5087 245.192 11.8408 246.488 11.9958C246.976 12.0556 247.464 12.122 247.947 12.184C247.937 12.2592 247.942 12.2836 247.932 12.2925C247.849 12.3677 247.766 12.443 247.675 12.5116C245.781 13.9552 244.354 15.7064 243.277 17.6813C242.119 19.8023 241.561 22.0672 241.206 24.3764C241.103 25.0428 241.148 25.7158 241.453 26.3513C241.528 26.5085 241.631 26.6634 241.757 26.7963C242.494 27.5734 243.468 27.6664 244.497 27.4339C245.589 27.1882 245.987 26.7166 246.042 25.738C246.128 24.2081 246.269 22.6827 246.636 21.1816C247.021 19.6252 247.534 18.1064 248.674 16.8245C248.999 16.4592 249.416 16.1204 249.869 15.8857C250.768 15.423 251.633 15.8016 251.784 16.7027C251.862 17.1676 251.862 17.6547 251.797 18.1197C251.638 19.2377 251.422 20.347 251.228 21.4606C251.027 22.6074 250.77 23.752 250.853 24.921C250.883 25.3727 250.982 25.8266 251.105 26.2672C251.268 26.8494 251.749 27.1771 252.396 27.332C254.451 27.828 256.527 27.8701 258.613 27.538C259.089 27.4605 259.501 27.2523 259.871 26.9579C260.639 26.3446 261.059 25.5631 261.197 24.7041C261.426 23.2783 261.595 21.8392 261.69 20.4001C261.912 17.1323 262.043 13.86 261.987 10.5855ZM251.364 8.08145C250.959 9.22165 250.156 9.6888 248.775 9.68659C248.148 9.58032 247.502 9.52054 246.898 9.35449C245.214 8.89177 244.437 7.52134 244.988 6.05789C245.076 5.82542 245.177 5.59294 245.308 5.37818C246.397 3.576 248.533 3.53614 249.912 4.03871C250.312 4.18483 250.639 4.41956 250.858 4.7428C251.568 5.79223 251.779 6.91025 251.364 8.08145Z" fill="#5CCF54"/>
<path d="M211.965 3.04621C210.984 2.19161 209.784 1.67575 208.485 1.32373C206.223 0.710452 203.896 0.438175 201.533 0.316406C200.59 0.371756 199.646 0.404966 198.705 0.482455C197.62 0.575442 196.561 0.772487 195.572 1.202C194.349 1.73557 193.544 2.48608 193.398 3.77241C193.177 5.734 193.021 7.69783 192.971 9.66828C192.852 14.2822 193.036 18.8873 193.491 23.4835C193.562 24.2141 193.718 24.9536 193.969 25.651C194.377 26.7868 195.165 27.6436 196.622 27.834C198.617 28.093 200.59 28.0244 202.545 27.5727C203.214 27.42 203.674 27.0791 203.996 26.5521C204.53 25.671 204.653 24.7123 204.709 23.7425C204.804 22.0156 204.651 20.2954 204.535 18.5751C204.447 17.2755 204.324 15.9715 204.369 14.6741C204.424 13.1132 204.56 12.7214 206.742 12.4335C207.756 12.2985 208.777 12.1878 209.771 11.9841C211.004 11.7339 212.011 11.1384 212.753 10.2218C213.533 9.25869 213.732 8.15391 213.734 7.01371C213.742 5.49713 213.226 4.14214 211.965 3.04621ZM210.093 7.52288C209.97 8.47268 209.353 9.09926 208.4 9.48007C207.66 9.77674 206.86 9.86309 206.213 9.87416C204.6 9.86309 203.823 9.32507 203.496 8.08303C203.189 6.91183 203.395 5.80707 204.223 4.83956C204.449 4.57388 204.817 4.35027 205.172 4.23072C206.06 3.93404 206.976 3.93845 207.887 4.20634C208.591 4.41224 209.082 4.85725 209.467 5.37311C209.945 6.01738 210.196 6.73471 210.093 7.52288Z" fill="#5CCF54"/>
<path d="M182.306 16.3252C182.407 19.2078 182.52 22.0927 182.601 24.9775C182.626 25.8166 182.392 26.6092 181.524 27.0941C181.146 27.3066 180.686 27.435 180.243 27.5214C178.94 27.7693 177.619 27.8314 176.285 27.7671C174.916 27.7029 173.998 27.1118 173.429 26.0424C172.803 24.8646 172.501 23.6115 172.249 22.3451C171.816 20.1754 171.612 17.9857 171.487 15.7895C171.316 12.836 171.26 9.88254 171.316 6.92687C171.336 5.80217 171.373 4.67525 171.421 3.55055C171.474 2.28415 172.199 1.43176 173.598 1.06203C174.285 0.880483 175.004 0.752089 175.721 0.692311C178.472 0.464271 181.227 0.501913 183.975 0.752093C185.432 0.884932 186.881 1.0997 188.325 1.31445C188.813 1.38752 189.289 1.55353 189.749 1.72179C190.393 1.95869 190.655 2.39045 190.62 3.03029C190.59 3.58157 190.21 4.04426 189.591 4.20588C189.249 4.29444 188.879 4.35646 188.524 4.35204C187.641 4.33654 186.758 4.27675 185.874 4.23469C185.354 4.21033 184.83 4.15275 184.309 4.16161C183.341 4.17711 182.802 4.54463 182.618 5.37708C182.45 6.13427 182.299 6.90698 182.274 7.67523C182.218 9.50398 182.243 11.3327 182.238 13.1614C182.236 14.2175 182.238 15.2714 182.238 16.3274C182.261 16.3274 182.284 16.3274 182.306 16.3274V16.3252Z" fill="#5CCF54"/>
</svg>
