<svg width="318" height="32" viewBox="0 0 318 32" fill="none" xmlns="http://www.w3.org/2000/svg">
<path d="M21.6165 3.21143C20.6948 2.68558 19.6774 2.31579 18.5941 2.05167C15.7152 1.34333 12.7676 1.01201 10.3645 1C8.32362 1 6.89016 1.02399 5.47768 1.28091C4.04125 1.54264 2.67963 1.91959 1.58137 2.75999C1.07562 3.14657 0.752426 3.6124 0.680605 4.15265C0.474119 5.76381 0.252658 7.37741 0.144926 8.99577C-0.046597 11.8555 -0.0286271 14.7177 0.0850899 17.5798C0.210777 20.6893 0.348461 23.7987 0.785374 26.8913C0.908068 27.7701 1.18932 28.6178 1.78484 29.3789C2.35941 30.1089 3.15548 30.6155 4.2298 30.7523C5.05276 30.858 5.89362 30.894 6.72854 30.9204C8.29066 30.966 9.82881 30.8052 11.352 30.5219C11.8667 30.4282 12.2827 30.2481 12.6478 29.9576C13.3002 29.4293 13.5575 28.7546 13.7431 28.0607C14.0333 26.9922 14.0902 25.9021 14.0333 24.8144C13.9226 22.7926 13.7311 20.7757 13.6354 18.7563C13.5875 17.7118 13.6444 16.6601 13.7102 15.6156C13.7581 14.8449 14.3656 14.4079 15.2813 14.2542C15.9815 14.139 16.6907 14.0525 17.4 13.9757C18.5162 13.8556 19.6355 13.7572 20.6888 13.4234C22.1073 12.972 23.2355 12.2661 23.9657 11.1568C24.5432 10.2804 24.7018 9.34152 24.7377 8.39068C24.8215 6.24647 23.8489 4.47682 21.6165 3.21143ZM18.3875 10.871C17.5376 11.1615 16.6579 11.2888 16.1102 11.2936C14.0065 11.356 12.9501 10.7126 12.564 9.35353C12.2528 8.25141 12.4383 7.18528 13.0997 6.19601C13.5037 5.58613 14.1501 5.16352 15.0449 5.04827C16.4843 4.86098 17.8668 4.8946 18.998 5.76861C19.9526 6.50815 20.4584 7.42539 20.4374 8.47709C20.4135 9.60321 19.7222 10.4148 18.3875 10.871Z" fill="#5CCF54"/>
<path d="M57.6771 28.3766C57.5533 27.8469 57.3891 27.3245 57.2374 26.7996C56.8379 25.3944 56.4724 23.9795 56.0296 22.5815C55.2088 19.9887 54.3694 17.3983 53.4837 14.8176C52.3966 11.642 51.1392 8.505 49.4668 5.47927C48.8226 4.31348 48.0855 3.18153 47.0325 2.19472C46.5896 1.77871 46.029 1.50542 45.3817 1.35788C44.7902 1.22243 44.1801 1.11119 43.5669 1.06523C41.3246 0.898345 39.1164 1.04105 36.9763 1.61669C35.6879 1.96256 34.6441 2.51402 34.1269 3.56371C33.6407 4.54811 33.043 5.50102 32.5629 6.49025C30.8595 9.98277 29.5928 13.5793 28.5119 17.2121C27.7036 19.9234 27.013 22.6589 26.3037 25.3896C26.0715 26.2942 25.9165 27.2108 25.7741 28.1251C25.5635 29.4698 26.4028 30.3551 28.0938 30.6187C30.3887 30.9767 32.7116 31.071 35.0406 30.9501C36.0193 30.8993 36.9979 30.7275 37.958 30.551C38.9243 30.3744 39.5654 29.9173 39.7141 29.1022C39.8039 28.6088 39.9773 28.1226 40.1043 27.6341C40.4667 26.2409 40.7949 24.8406 41.1914 23.4547C41.402 22.7194 41.8355 22.0615 42.8762 21.839C43.3005 21.7471 43.7526 21.7084 44.1955 21.6963C44.9853 21.6746 45.7782 21.6915 46.571 21.6915V21.6455C47.4135 21.6455 48.2558 21.66 49.0982 21.6407C49.8013 21.6262 50.2752 21.8898 50.6066 22.3348C50.78 22.5646 50.9379 22.8137 51.0277 23.0701C51.2755 23.7739 51.4954 24.4826 51.706 25.1937C52.1024 26.5239 52.4802 27.8542 52.8767 29.1845C53.0408 29.7407 53.555 29.9996 54.2394 30.1108C54.9641 30.2293 55.6826 30.1882 56.3671 30.014C57.6214 29.6948 57.8877 29.2691 57.6771 28.3766ZM46.7785 18.9802C45.868 18.985 44.945 18.9801 44.05 18.8689C42.839 18.7165 42.2847 18.0804 42.5324 17.1589C43.0868 15.1103 43.6876 13.069 44.2978 11.0301C44.4093 10.6527 44.5146 10.2319 45.0782 10.0167C45.5521 10.1908 45.6234 10.5101 45.7379 10.7979C46.379 12.4111 47.0077 14.0292 47.6333 15.6449C47.8253 16.1407 48.0019 16.6413 48.1753 17.142C48.2249 17.2895 48.2621 17.4419 48.2744 17.5943C48.3519 18.5206 47.9957 18.9753 46.7785 18.9802Z" fill="#5CCF54"/>
<path d="M70.7297 16.0274C70.7916 17.8299 71.059 19.705 71.9195 21.4998C72.4866 22.6834 73.2264 23.7894 74.465 24.6363C76.3458 25.926 78.5916 25.9079 80.544 25.232C81.3915 24.9393 81.8771 24.3228 82.2813 23.6935C82.692 23.0512 83.044 22.3856 83.4156 21.7278C83.8132 21.0259 84.2924 20.3629 85.0453 19.8656C85.8569 19.3321 86.8348 19.1974 87.6432 19.5989C88.1288 19.8397 88.3406 20.1893 88.4775 20.596C88.9208 21.8935 88.7938 23.1781 88.1973 24.4161C86.6034 27.7286 83.66 29.8808 79.263 30.6992C76.4794 31.2172 73.7349 31.0541 71.0295 30.303C68.2851 29.5389 65.8307 28.4331 63.787 26.7729C61.5771 24.9807 60.2081 22.8337 59.5139 20.4224C58.7968 17.9387 58.5034 15.4187 58.963 12.8806C59.7095 8.75482 62.3757 5.60807 66.864 3.42994C69.4977 2.15052 72.3692 1.39432 75.4364 1.08612C77.8223 0.847843 80.1366 1.10423 82.3204 1.85272C85.0812 2.80063 86.5252 4.59283 87.063 6.87455C87.1608 7.29153 87.164 7.73439 87.1053 8.15655C87.0206 8.77813 86.5838 9.21844 85.7983 9.41269C84.9541 9.61988 84.2044 9.49038 83.5525 9.01902C83.0929 8.68751 82.8615 8.25499 82.6887 7.79399C82.5779 7.49874 82.4899 7.19574 82.353 6.90825C81.8119 5.78423 80.7526 5.10304 79.2695 4.99167C77.6365 4.86995 76.1437 5.19628 74.9116 6.16232C73.3275 7.4029 72.3692 8.91282 71.7206 10.56C71.0361 12.3004 70.7623 14.0979 70.7362 16.0196L70.7297 16.0274Z" fill="#5CCF54"/>
<path d="M104.032 1.08658C107.173 1.05608 110.313 1.01793 113.453 1.00013C113.962 0.997592 114.49 1.03065 114.977 1.13996C116.301 1.43483 117.016 2.2152 117.306 3.21421C117.834 5.04445 117.876 6.89757 117.47 8.74815C117.405 9.04302 117.26 9.32771 117.151 9.6175C116.838 10.4589 116.036 10.8657 115.012 11.0029C113.872 11.1555 112.719 11.2418 111.569 11.3461C110.574 11.435 109.569 11.4732 108.577 11.5926C107.279 11.7477 106.941 12.0426 106.854 13.0517C106.809 13.5932 106.815 14.1423 106.873 14.6838C107.308 18.7077 107.769 22.7292 108.203 26.7532C108.316 27.8056 108.29 28.8529 107.83 29.8646C107.446 30.706 106.78 31.0542 105.656 30.9932C105.247 30.9703 104.834 30.9271 104.432 30.8661C103.102 30.6602 102.29 30.0222 102.035 28.9851C101.913 28.4919 101.836 27.986 101.816 27.4827C101.7 24.234 101.613 20.9828 101.501 17.7316C101.459 16.542 101.391 15.3497 101.291 14.1626C101.253 13.7025 101.124 13.2449 100.982 12.795C100.824 12.2841 100.373 11.9943 99.7357 11.824C98.325 11.4452 96.8692 11.3613 95.4005 11.3435C94.576 11.3334 93.7514 11.3461 92.93 11.3003C91.9638 11.2444 91.0942 10.9572 90.5853 10.2886C90.2761 9.8819 90.0667 9.40399 89.9508 8.93626C89.619 7.59154 89.7157 6.23668 90.012 4.89959C90.1827 4.12682 90.4597 3.36676 90.727 2.60924C91.0137 1.80343 91.7609 1.35854 92.7722 1.23398C93.6322 1.12976 94.5115 1.07895 95.3811 1.07386C98.2638 1.05353 101.147 1.06623 104.029 1.06623C104.029 1.07385 104.029 1.07896 104.029 1.08658H104.032Z" fill="#5CCF54"/>
<path d="M152.742 14.4273C152.588 16.3429 152.508 18.2666 152.257 20.1743C151.969 22.3397 151.156 24.3855 149.559 26.2028C148 27.9776 145.914 29.2158 143.384 29.9943C140.355 30.9268 137.189 31.0703 133.986 30.9746C131.409 30.8949 128.939 30.4565 126.69 29.4416C124.333 28.3788 122.549 26.9202 121.893 24.7654C121.77 24.3616 121.756 23.9311 121.743 23.5113C121.696 21.9969 123.985 21.3566 125.394 21.9517C126.168 22.2785 126.629 22.8072 127.044 23.3811C127.587 24.133 128.115 24.8903 128.661 25.6422C129.12 26.2719 129.732 26.8006 130.485 27.2204C132.276 28.2194 134.772 27.7252 135.763 26.1736C136.613 24.8424 136.878 23.4024 136.945 21.9384C136.975 21.3087 136.894 20.6738 136.834 20.0414C136.751 19.1912 136.245 18.6385 135.114 18.4605C133.936 18.2745 132.774 18.0195 131.603 17.791C129.909 17.4615 128.259 17.0576 126.834 16.2101C125.137 15.2058 123.935 13.8986 123.142 12.3735C121.827 9.83347 121.468 7.18983 122.027 4.47977C122.138 3.94573 122.375 3.41968 122.623 2.91221C122.831 2.49241 123.276 2.23731 123.861 2.2134C124.855 2.17355 125.836 2.22403 126.74 2.61194C127.319 2.85903 127.717 3.2257 127.774 3.74645C127.861 4.54353 127.935 5.34327 127.925 6.14301C127.915 7.19781 127.787 8.25258 127.774 9.30739C127.757 10.5296 128.089 11.6906 128.915 12.7534C129.745 13.8188 130.957 14.4618 132.436 14.8099C132.945 14.9294 133.491 14.9507 134.016 15.0224C135.211 15.1898 136.275 14.414 136.456 13.7286C136.556 13.346 136.607 12.9261 136.52 12.5462C136.168 10.9892 135.71 9.44558 135.378 7.88331C135.09 6.52562 134.993 5.15726 135.325 3.78628C135.636 2.49767 136.633 1.75643 138.206 1.44026C140.894 0.898245 143.612 0.900871 146.333 1.20907C147.477 1.33926 148.572 1.65016 149.569 2.10981C150.306 2.44724 150.778 2.98393 151.055 3.63222C151.591 4.88098 151.849 6.17489 152.063 7.47147C152.448 9.77769 152.595 12.0972 152.735 14.4273H152.742Z" fill="#5CCF54"/>
<path d="M201.808 15.3022C201.643 18.6019 201.496 21.9181 201.302 25.232C201.233 26.4157 201.017 27.597 200.918 28.7807C200.823 29.9573 199.775 30.3534 198.729 30.4744C198.146 30.5408 197.532 30.5171 196.939 30.472C195.966 30.3985 195.442 29.9999 195.226 29.2409C194.962 28.3039 195.085 27.3645 195.19 26.4252C195.277 25.6542 195.373 24.8856 195.45 24.1171C195.471 23.913 195.468 23.6996 195.427 23.498C195.295 22.8409 194.867 22.6914 194.193 23.0781C193.866 23.2655 193.564 23.4861 193.297 23.7257C192.399 24.5346 191.537 25.3672 190.638 26.1737C189.405 27.2815 188.051 28.2849 186.539 29.1602C184.119 30.5621 181.4 31.1172 178.433 30.9797C177.72 30.9464 177.007 30.8539 176.301 30.7709C174.872 30.6025 173.869 29.9407 173.118 29.0132C172.24 27.9338 171.734 26.7383 171.42 25.4929C170.731 22.7744 170.65 20.0275 170.815 17.2711C170.974 14.612 171.288 11.9647 171.854 9.3435C172.309 7.22756 172.851 5.12108 173.441 3.02412C173.702 2.09662 174.393 1.38026 175.711 1.21184C176.136 1.15728 176.558 1.08371 176.984 1.05524C178.882 0.927145 180.771 1.01731 182.619 1.37313C183.517 1.54629 184.407 1.80722 185.227 2.14169C186.38 2.609 186.922 3.41789 186.973 4.44977C187.009 5.18513 186.692 5.85879 186.518 6.56094C186.183 7.90831 185.802 9.25332 185.539 10.6102C185.015 13.331 184.673 16.0708 184.595 18.8249C184.578 19.5009 184.548 20.1841 184.658 20.8507C184.889 22.2384 186.422 22.8599 188.003 22.2004C188.866 21.8398 189.68 21.3986 190.471 20.9455C191.456 20.381 192.429 19.7974 193.339 19.1617C194.747 18.1773 195.747 17.0126 195.6 15.4304C195.576 15.186 195.612 14.9393 195.597 14.695C195.477 12.738 195.358 10.7786 195.232 8.82158C195.172 7.89882 195.085 6.97846 195.04 6.0557C195.001 5.26104 195.052 4.47115 195.397 3.71207C196.085 2.19391 198.439 1.68624 199.993 2.73472C200.224 2.88891 200.403 3.10714 200.55 3.31826C201.014 3.98483 201.32 4.68936 201.353 5.46504C201.496 8.74332 201.658 12.0192 201.811 15.3189L201.808 15.3022Z" fill="#5CCF54"/>
<path d="M289.668 28.3221C289.177 26.5989 288.718 24.8684 288.181 23.1524C287.285 20.2812 286.394 17.4051 285.395 14.5556C284.322 11.4983 283.14 8.46515 281.489 5.55525C280.881 4.48216 280.229 3.426 279.32 2.481C278.706 1.83812 277.903 1.42239 276.891 1.24354C274.924 0.900345 272.951 0.946299 270.981 1.21699C269.929 1.35958 268.905 1.59157 267.946 1.96618C267.289 2.22478 266.721 2.56801 266.404 3.09006C265.917 3.88762 265.449 4.69486 265.018 5.51176C263.795 7.82228 262.821 10.2029 261.999 12.6149C261.18 15.0269 260.37 17.4438 259.693 19.8824C258.971 22.4878 258.387 25.1198 257.795 27.7469C257.692 28.2061 257.751 28.7088 257.872 29.1704C258.071 29.9414 258.75 30.3764 259.737 30.5553C261.49 30.8719 263.268 30.9468 265.548 31C266.243 30.9565 267.437 30.9178 268.61 30.7849C269.308 30.7027 269.997 30.5021 270.655 30.2918C271.176 30.1251 271.493 29.7867 271.604 29.3275C271.806 28.4985 272.057 27.6768 272.278 26.8502C272.582 25.7046 272.864 24.5518 273.183 23.4086C273.484 22.3379 274.235 21.8328 275.625 21.7192C275.796 21.7047 275.97 21.6951 276.143 21.6927C277.831 21.6757 279.516 21.6661 281.201 21.6443C281.601 21.6395 281.917 21.7506 282.209 21.9512C282.637 22.2437 282.879 22.6232 283.003 23.0364C283.438 24.4551 283.828 25.8811 284.263 27.2998C284.474 27.991 284.738 28.6701 284.986 29.3517C285.128 29.7456 285.519 29.9366 285.997 30.0381C286.835 30.2145 287.676 30.1807 288.489 29.9704C289.562 29.6949 289.913 29.1825 289.668 28.3221ZM279.203 18.9374C278.79 18.9978 278.365 19.0003 277.806 19.0389C277.326 18.9954 276.702 18.9664 276.097 18.877C274.75 18.6788 274.248 18.0166 274.555 16.9798C275.079 15.2034 275.566 13.4197 276.084 11.6409C276.199 11.2494 276.342 10.8578 276.537 10.488C276.63 10.314 276.857 10.1013 277.068 10.0651C277.397 10.0095 277.478 10.2995 277.564 10.488C277.927 11.3049 278.287 12.1219 278.616 12.946C279.085 14.1182 279.544 15.2952 279.963 16.4795C280.13 16.9556 280.248 17.4559 280.27 17.9489C280.295 18.5507 279.963 18.8262 279.203 18.9374Z" fill="#5CCF54"/>
<path d="M317.735 12.4889C317.687 9.82441 317.592 7.15736 317.136 4.50852C317.008 3.7702 316.623 3.14621 315.871 2.71291C315.291 2.38071 314.65 2.09386 313.991 1.86927C312.483 1.35009 310.863 1.22838 309.242 1.16893C306.716 1.07592 304.211 1.24892 301.736 1.63285C299.981 1.9061 298.235 2.23923 296.669 2.95864C295.079 3.68757 293.852 4.67626 293.228 6.07627C292.653 7.37338 292.646 8.69117 292.988 10.0195C293.248 11.0409 293.866 11.9075 294.871 12.5955C296.085 13.4301 297.542 13.7935 299.099 13.9654C299.685 14.0316 300.272 14.105 300.853 14.1737C300.84 14.2551 300.846 14.2815 300.834 14.291C300.734 14.3722 300.634 14.4534 300.525 14.5274C298.243 16.0835 296.523 17.9742 295.223 20.108C293.825 22.3996 293.147 24.849 292.714 27.3469C292.588 28.0677 292.641 28.7963 293.005 29.4849C293.095 29.6552 293.219 29.8233 293.37 29.9675C294.254 30.8108 295.424 30.9146 296.662 30.6664C297.975 30.4039 298.454 29.8948 298.524 28.8359C298.631 27.1806 298.805 25.5302 299.251 23.9069C299.718 22.2237 300.339 20.5817 301.713 19.1981C302.105 18.8038 302.608 18.4385 303.153 18.186C304.234 17.6881 305.273 18.1006 305.452 19.0763C305.545 19.5797 305.543 20.1068 305.463 20.6098C305.269 21.8193 305.006 23.019 304.77 24.2236C304.525 25.4641 304.213 26.7019 304.309 27.9673C304.344 28.4562 304.461 28.9477 304.608 29.4249C304.803 30.0556 305.379 30.4117 306.156 30.5815C308.626 31.1248 311.121 31.1771 313.63 30.8244C314.202 30.742 314.698 30.5181 315.144 30.2006C316.068 29.5394 316.575 28.695 316.744 27.7658C317.024 26.2235 317.23 24.6666 317.349 23.1095C317.625 19.5737 317.792 16.0328 317.735 12.4889ZM304.972 9.74485C304.482 10.9775 303.516 11.4805 301.855 11.4736C301.102 11.3566 300.325 11.2898 299.6 11.1082C297.577 10.602 296.647 9.1164 297.313 7.53441C297.42 7.28311 297.542 7.03184 297.7 6.79984C299.014 4.85299 301.582 4.81672 303.239 5.36505C303.719 5.52448 304.112 5.77955 304.374 6.13007C305.224 7.26807 305.474 8.47869 304.972 9.74485Z" fill="#5CCF54"/>
<path d="M255.616 3.9599C254.436 3.03327 252.994 2.47392 251.433 2.09223C248.714 1.42726 245.916 1.13203 243.076 1C241.942 1.06001 240.808 1.09602 239.677 1.18004C238.373 1.28087 237.1 1.49452 235.911 1.96024C234.442 2.53878 233.474 3.35255 233.298 4.7473C233.032 6.87423 232.845 9.0036 232.784 11.1401C232.642 16.143 232.863 21.1362 233.41 26.1198C233.495 26.912 233.682 27.7139 233.985 28.47C234.475 29.7015 235.422 30.6305 237.173 30.837C239.571 31.1179 241.942 31.0435 244.292 30.5537C245.097 30.3881 245.65 30.0184 246.037 29.4471C246.679 28.4917 246.827 27.4522 246.893 26.4007C247.008 24.5282 246.824 22.663 246.685 20.7977C246.579 19.3886 246.431 17.9746 246.485 16.5679C246.552 14.8754 246.715 14.4506 249.337 14.1385C250.556 13.992 251.784 13.872 252.979 13.6511C254.461 13.3799 255.67 12.7341 256.563 11.7403C257.5 10.696 257.739 9.49812 257.742 8.26181C257.751 6.6174 257.131 5.1482 255.616 3.9599ZM253.366 8.8139C253.218 9.84376 252.476 10.5232 251.33 10.9361C250.441 11.2577 249.479 11.3514 248.702 11.3634C246.763 11.3514 245.829 10.768 245.435 9.42126C245.067 8.15134 245.315 6.95347 246.31 5.90441C246.582 5.61634 247.023 5.37388 247.45 5.24424C248.517 4.92256 249.618 4.92734 250.713 5.21781C251.56 5.44107 252.15 5.92359 252.613 6.48293C253.187 7.18151 253.49 7.95929 253.366 8.8139Z" fill="#5CCF54"/>
<path d="M220.415 18.3773C220.54 21.5508 220.681 24.7268 220.781 27.9028C220.812 28.8266 220.522 29.6992 219.444 30.233C218.975 30.467 218.403 30.6084 217.853 30.7034C216.235 30.9764 214.595 31.0447 212.939 30.974C211.239 30.9033 210.098 30.2525 209.392 29.0753C208.614 27.7785 208.239 26.399 207.927 25.0047C207.39 22.6161 207.137 20.2054 206.98 17.7875C206.768 14.5359 206.699 11.2844 206.768 8.03038C206.793 6.79216 206.84 5.5515 206.899 4.31328C206.965 2.91906 207.865 1.98065 209.602 1.5736C210.455 1.37373 211.348 1.23238 212.239 1.16657C215.654 0.915509 219.075 0.956951 222.487 1.23238C224.296 1.37863 226.095 1.61507 227.889 1.8515C228.495 1.93194 229.086 2.11471 229.657 2.29995C230.457 2.56076 230.782 3.0361 230.738 3.74052C230.701 4.34744 230.229 4.85682 229.46 5.03475C229.035 5.13225 228.576 5.20054 228.136 5.19566C227.039 5.1786 225.942 5.11278 224.846 5.06647C224.199 5.03966 223.549 4.97627 222.902 4.98602C221.699 5.00308 221.031 5.40769 220.803 6.32417C220.593 7.15777 220.406 8.00847 220.375 8.85426C220.306 10.8676 220.337 12.8809 220.331 14.8942C220.328 16.0568 220.331 17.2171 220.331 18.3797C220.359 18.3797 220.387 18.3797 220.415 18.3797V18.3773Z" fill="#5CCF54"/>
</svg>
