<svg width="26" height="27" viewBox="0 0 26 27" fill="none" xmlns="http://www.w3.org/2000/svg">
<path d="M9.94579 20.3069L9.94866 7.62385L15.8825 7.62404L15.8794 20.3073L9.94579 20.3069Z" fill="#FFCE31"/>
<path d="M13.2952 2.42787L12.5396 2.42795C11.1078 2.42809 9.95432 3.58157 9.93429 5.03322L9.93402 7.61835L15.8997 7.61774L15.9 5.03262C15.9001 3.60086 14.727 2.42773 13.2952 2.42787Z" fill="#ED4C5C"/>
<path d="M9.95234 9.23555L9.95211 7.60453L15.886 7.60393L15.886 9.23474L9.95234 9.23555Z" fill="#93A2AA"/>
<path d="M10.571 9.23535L10.571 7.60453L15.2395 7.60386L15.239 9.23487L10.571 9.23535Z" fill="#C7D3D8"/>
<path d="M9.93283 20.3069L12.0203 24.9798L13.81 24.9796L15.8985 20.3063L9.93283 20.3069Z" fill="#FED0AC"/>
<path d="M12.3979 25.7937C12.6961 26.4499 13.1535 26.4299 13.4518 25.7737L14.4662 23.5265L11.4038 23.5268L12.3979 25.7937Z" fill="#333333"/>
<path d="M9.94557 20.3228L9.94669 9.24252L11.9154 9.24232L11.9142 20.3226L9.94557 20.3228Z" fill="#FFDF85"/>
<path d="M13.9187 20.313L13.9198 9.23275L15.8885 9.23255L15.8874 20.3128L13.9187 20.313Z" fill="#FF8736"/>
</svg>
