<svg width="32" height="32" viewBox="0 0 32 32" fill="none" xmlns="http://www.w3.org/2000/svg">
<rect width="32" height="32" rx="16" transform="matrix(-1 0 0 1 32 0)" fill="#0D47AA"/>
<path d="M8.33398 17C7.7817 17 7.33398 16.5523 7.33398 16C7.33398 15.4477 7.7817 15 8.33398 15V17ZM24.3744 15.2929C24.7649 15.6834 24.7649 16.3166 24.3744 16.7071L18.0105 23.0711C17.6199 23.4616 16.9868 23.4616 16.5963 23.0711C16.2057 22.6805 16.2057 22.0474 16.5963 21.6569L22.2531 16L16.5963 10.3431C16.2057 9.95262 16.2057 9.31946 16.5963 8.92893C16.9868 8.53841 17.6199 8.53841 18.0105 8.92893L24.3744 15.2929ZM8.33398 15L23.6673 15V17H8.33398V15Z" fill="white"/>
</svg>
