<svg width="32" height="32" viewBox="0 0 32 32" fill="none" xmlns="http://www.w3.org/2000/svg">
<rect width="32" height="32" rx="16" transform="matrix(1 0 0 -1 0 32)" fill="#0D47AA"/>
<path d="M23.666 15C24.2183 15 24.666 15.4477 24.666 16C24.666 16.5523 24.2183 17 23.666 17V15ZM7.62558 16.7071C7.23505 16.3166 7.23505 15.6834 7.62558 15.2929L13.9895 8.92893C14.3801 8.53841 15.0132 8.53841 15.4038 8.92893C15.7943 9.31946 15.7943 9.95262 15.4038 10.3431L9.7469 16L15.4038 21.6569C15.7943 22.0474 15.7943 22.6805 15.4038 23.0711C15.0132 23.4616 14.3801 23.4616 13.9895 23.0711L7.62558 16.7071ZM23.666 17L8.33268 17V15L23.666 15V17Z" fill="white"/>
</svg>
