<svg width="44" height="45" viewBox="0 0 44 45" fill="none" xmlns="http://www.w3.org/2000/svg">
<circle cx="22" cy="22.5" r="22" fill="#623CAD"/>
<path d="M31.5726 12.8355C32.1772 13.1765 32.6226 13.7453 32.8109 14.4168C32.9991 15.0884 32.9147 15.8077 32.5762 16.4167L23.981 31.8707C23.7633 32.2622 23.4614 32.5997 23.0974 32.8585C22.7333 33.1173 22.3164 33.2907 21.8771 33.3662C21.4378 33.4417 20.9874 33.4173 20.5587 33.2947C20.13 33.1721 19.734 32.9546 19.3997 32.6579L12.8857 26.8805C12.3656 26.4191 12.0489 25.7685 12.0052 25.072C11.9615 24.3754 12.1944 23.6899 12.6527 23.1662C13.111 22.6426 13.7571 22.3237 14.449 22.2797C15.1408 22.2357 15.8216 22.4702 16.3417 22.9317L20.7745 26.864L28.015 13.846C28.1827 13.5444 28.4077 13.2791 28.6773 13.0651C28.9468 12.8511 29.2556 12.6927 29.5859 12.5989C29.9163 12.505 30.2617 12.4776 30.6026 12.5182C30.9435 12.5588 31.2731 12.6666 31.5726 12.8355Z" fill="white"/>
</svg>
