<svg width="50" height="44" viewBox="0 0 50 44" fill="none" xmlns="http://www.w3.org/2000/svg">
<path fill-rule="evenodd" clip-rule="evenodd" d="M13.3707 9.625C9.14941 9.625 6.73983 13.8659 9.2726 16.8377C10.3536 18.106 10.9379 19.6488 10.9379 21.2342V33C10.9379 37.8096 15.3685 41.7083 20.8338 41.7083H29.1671C34.6323 41.7083 39.063 37.8096 39.063 33V21.2342C39.063 19.6488 39.6473 18.106 40.7284 16.8377C43.2611 13.8659 40.8515 9.625 36.6302 9.625H13.3707ZM29.1667 18.7917C30.0296 18.7917 30.7292 19.4073 30.7292 20.1667V31.1667C30.7292 31.926 30.0296 32.5417 29.1667 32.5417C28.3038 32.5417 27.6042 31.926 27.6042 31.1667V20.1667C27.6042 19.4073 28.3038 18.7917 29.1667 18.7917ZM22.3959 20.1667C22.3959 19.4073 21.6963 18.7917 20.8334 18.7917C19.9704 18.7917 19.2709 19.4073 19.2709 20.1667V31.1667C19.2709 31.926 19.9704 32.5417 20.8334 32.5417C21.6963 32.5417 22.3959 31.926 22.3959 31.1667V20.1667Z" fill="#623CAD"/>
<path d="M33.3332 11L32.1994 8.00716C31.6323 6.50991 30.04 5.5 28.2467 5.5H21.753C19.9595 5.5 18.3673 6.50991 17.8002 8.00716L16.6665 11" stroke="#623CAD" stroke-width="1.5" stroke-linecap="round"/>
</svg>
