<svg width="116" height="18" viewBox="0 0 116 18" fill="none" xmlns="http://www.w3.org/2000/svg">
<path d="M26.1701 15.7492C26.0501 15.7497 25.9318 15.7214 25.8251 15.6667L22.0001 13.6642L18.1751 15.6667C18.0509 15.732 17.9108 15.7611 17.7709 15.7508C17.6309 15.7405 17.4967 15.6911 17.3834 15.6083C17.2701 15.5255 17.1823 15.4126 17.13 15.2823C17.0777 15.1521 17.063 15.0098 17.0876 14.8717L17.8376 10.6492L14.7476 7.64918C14.6512 7.55297 14.5828 7.43233 14.5497 7.3002C14.5167 7.16807 14.5203 7.02943 14.5601 6.89918C14.6035 6.76588 14.6835 6.64744 14.7909 6.5573C14.8983 6.46715 15.0288 6.40891 15.1676 6.38918L19.4426 5.76668L21.3251 1.91918C21.3865 1.79237 21.4824 1.68543 21.6017 1.61061C21.7211 1.53578 21.8592 1.49609 22.0001 1.49609C22.141 1.49609 22.279 1.53578 22.3984 1.61061C22.5178 1.68543 22.6137 1.79237 22.6751 1.91918L24.5801 5.75918L28.8551 6.38168C28.9939 6.40141 29.1244 6.45965 29.2318 6.5498C29.3391 6.63994 29.4191 6.75838 29.4626 6.89168C29.5024 7.02193 29.5059 7.16057 29.4729 7.2927C29.4399 7.42483 29.3715 7.54547 29.2751 7.64168L26.1851 10.6417L26.9351 14.8642C26.9618 15.0048 26.9478 15.1501 26.8947 15.283C26.8415 15.4159 26.7514 15.5308 26.6351 15.6142C26.4993 15.7093 26.3357 15.7568 26.1701 15.7492Z" fill="#BABABA"/>
<path d="M44.1701 15.7492C44.0501 15.7497 43.9318 15.7214 43.8251 15.6667L40.0001 13.6642L36.1751 15.6667C36.0509 15.732 35.9108 15.7611 35.7709 15.7508C35.6309 15.7405 35.4967 15.6911 35.3834 15.6083C35.2701 15.5255 35.1823 15.4126 35.13 15.2823C35.0777 15.1521 35.063 15.0098 35.0876 14.8717L35.8376 10.6492L32.7476 7.64918C32.6512 7.55297 32.5828 7.43233 32.5497 7.3002C32.5167 7.16807 32.5203 7.02943 32.5601 6.89918C32.6035 6.76588 32.6835 6.64744 32.7909 6.5573C32.8983 6.46715 33.0288 6.40891 33.1676 6.38918L37.4426 5.76668L39.3251 1.91918C39.3865 1.79237 39.4824 1.68543 39.6017 1.61061C39.7211 1.53578 39.8592 1.49609 40.0001 1.49609C40.141 1.49609 40.279 1.53578 40.3984 1.61061C40.5178 1.68543 40.6137 1.79237 40.6751 1.91918L42.5801 5.75918L46.8551 6.38168C46.9939 6.40141 47.1244 6.45965 47.2318 6.5498C47.3391 6.63994 47.4191 6.75838 47.4626 6.89168C47.5024 7.02193 47.5059 7.16057 47.4729 7.2927C47.4399 7.42483 47.3715 7.54547 47.2751 7.64168L44.1851 10.6417L44.9351 14.8642C44.9618 15.0048 44.9478 15.1501 44.8947 15.283C44.8415 15.4159 44.7514 15.5308 44.6351 15.6142C44.4993 15.7093 44.3357 15.7568 44.1701 15.7492Z" fill="#BABABA"/>
<path d="M62.1701 15.7492C62.0501 15.7497 61.9318 15.7214 61.8251 15.6667L58.0001 13.6642L54.1751 15.6667C54.0509 15.732 53.9108 15.7611 53.7709 15.7508C53.6309 15.7405 53.4967 15.6911 53.3834 15.6083C53.2701 15.5255 53.1823 15.4126 53.13 15.2823C53.0777 15.1521 53.063 15.0098 53.0876 14.8717L53.8376 10.6492L50.7476 7.64918C50.6512 7.55297 50.5828 7.43233 50.5497 7.3002C50.5167 7.16807 50.5203 7.02943 50.5601 6.89918C50.6035 6.76588 50.6835 6.64744 50.7909 6.5573C50.8983 6.46715 51.0288 6.40891 51.1676 6.38918L55.4426 5.76668L57.3251 1.91918C57.3865 1.79237 57.4824 1.68543 57.6017 1.61061C57.7211 1.53578 57.8592 1.49609 58.0001 1.49609C58.141 1.49609 58.279 1.53578 58.3984 1.61061C58.5178 1.68543 58.6137 1.79237 58.6751 1.91918L60.5801 5.75918L64.8551 6.38168C64.9939 6.40141 65.1244 6.45965 65.2318 6.5498C65.3391 6.63994 65.4191 6.75838 65.4626 6.89168C65.5024 7.02193 65.5059 7.16057 65.4729 7.2927C65.4399 7.42483 65.3715 7.54547 65.2751 7.64168L62.1851 10.6417L62.9351 14.8642C62.9618 15.0048 62.9478 15.1501 62.8947 15.283C62.8415 15.4159 62.7514 15.5308 62.6351 15.6142C62.4993 15.7093 62.3357 15.7568 62.1701 15.7492Z" fill="#BABABA"/>
<path d="M80.1701 15.7492C80.0501 15.7497 79.9318 15.7214 79.8251 15.6667L76.0001 13.6642L72.1751 15.6667C72.0509 15.732 71.9108 15.7611 71.7709 15.7508C71.6309 15.7405 71.4967 15.6911 71.3834 15.6083C71.2701 15.5255 71.1823 15.4126 71.13 15.2823C71.0777 15.1521 71.063 15.0098 71.0876 14.8717L71.8376 10.6492L68.7476 7.64918C68.6512 7.55297 68.5828 7.43233 68.5497 7.3002C68.5167 7.16807 68.5203 7.02943 68.5601 6.89918C68.6035 6.76588 68.6835 6.64744 68.7909 6.5573C68.8983 6.46715 69.0288 6.40891 69.1676 6.38918L73.4426 5.76668L75.3251 1.91918C75.3865 1.79237 75.4824 1.68543 75.6017 1.61061C75.7211 1.53578 75.8592 1.49609 76.0001 1.49609C76.141 1.49609 76.279 1.53578 76.3984 1.61061C76.5178 1.68543 76.6137 1.79237 76.6751 1.91918L78.5801 5.75918L82.8551 6.38168C82.9939 6.40141 83.1244 6.45965 83.2318 6.5498C83.3391 6.63994 83.4191 6.75838 83.4626 6.89168C83.5024 7.02193 83.5059 7.16057 83.4729 7.2927C83.4399 7.42483 83.3715 7.54547 83.2751 7.64168L80.1851 10.6417L80.9351 14.8642C80.9618 15.0048 80.9478 15.1501 80.8947 15.283C80.8415 15.4159 80.7514 15.5308 80.6351 15.6142C80.4993 15.7093 80.3357 15.7568 80.1701 15.7492Z" fill="#BABABA"/>
<path d="M98.1701 15.7492C98.0501 15.7497 97.9318 15.7214 97.8251 15.6667L94.0001 13.6642L90.1751 15.6667C90.0509 15.732 89.9108 15.7611 89.7709 15.7508C89.6309 15.7405 89.4967 15.6911 89.3834 15.6083C89.2701 15.5255 89.1823 15.4126 89.13 15.2823C89.0777 15.1521 89.063 15.0098 89.0876 14.8717L89.8376 10.6492L86.7476 7.64918C86.6512 7.55297 86.5828 7.43233 86.5497 7.3002C86.5167 7.16807 86.5203 7.02943 86.5601 6.89918C86.6035 6.76588 86.6835 6.64744 86.7909 6.5573C86.8983 6.46715 87.0288 6.40891 87.1676 6.38918L91.4426 5.76668L93.3251 1.91918C93.3865 1.79237 93.4824 1.68543 93.6017 1.61061C93.7211 1.53578 93.8592 1.49609 94.0001 1.49609C94.141 1.49609 94.279 1.53578 94.3984 1.61061C94.5178 1.68543 94.6137 1.79237 94.6751 1.91918L96.5801 5.75918L100.855 6.38168C100.994 6.40141 101.124 6.45965 101.232 6.5498C101.339 6.63994 101.419 6.75838 101.463 6.89168C101.502 7.02193 101.506 7.16057 101.473 7.2927C101.44 7.42483 101.371 7.54547 101.275 7.64168L98.1851 10.6417L98.9351 14.8642C98.9618 15.0048 98.9478 15.1501 98.8947 15.283C98.8415 15.4159 98.7514 15.5308 98.6351 15.6142C98.4993 15.7093 98.3357 15.7568 98.1701 15.7492Z" fill="#BABABA"/>
</svg>
