<svg width="53" height="50" viewBox="0 0 53 50" fill="none" xmlns="http://www.w3.org/2000/svg">
<path d="M6.51701 32.1288L32.7212 7.22266L44.9778 18.8782L18.7729 43.7844L6.51701 32.1288Z" fill="#FFCE31"/>
<path d="M50.3636 3.59306L48.8026 2.10897C45.8448 -0.702991 41.0795 -0.702991 38.0396 2.10897L32.6992 7.18613L45.0232 18.9026L50.3636 13.8255C53.3214 11.0135 53.3214 6.40503 50.3636 3.59306Z" fill="#ED4C5C"/>
<path d="M29.3984 10.3955L32.767 7.19141L45.0253 18.8454L41.6567 22.0487L29.3984 10.3955Z" fill="#93A2AA"/>
<path d="M30.6767 11.6115L34.0453 8.4082L43.6901 17.5768L40.3199 20.7793L30.6767 11.6115Z" fill="#C7D3D8"/>
<path d="M6.48974 32.1035L1.14932 45.3822L4.84653 48.8972L18.8138 43.82L6.48974 32.1035Z" fill="#FED0AC"/>
<path d="M0.245506 47.7253C-0.493935 49.6 0.491987 50.4592 2.46383 49.7562L9.20097 47.3348L2.87463 41.3203L0.245506 47.7253Z" fill="#333333"/>
<path d="M6.48163 32.1619L29.3715 10.4004L33.4384 14.2668L10.5486 36.0283L6.48163 32.1619Z" fill="#FFDF85"/>
<path d="M14.7083 39.947L37.5982 18.1855L41.6651 22.052L18.7753 43.8135L14.7083 39.947Z" fill="#FF8736"/>
</svg>
