<svg width="42" height="40" viewBox="0 0 42 40" fill="none" xmlns="http://www.w3.org/2000/svg">
<path d="M32.3448 39.7501C32.0116 39.7514 31.683 39.6729 31.3865 39.5209L20.7615 33.9584L10.1365 39.5209C9.79145 39.7024 9.40246 39.7833 9.01371 39.7547C8.62496 39.726 8.25205 39.5889 7.93736 39.3588C7.62268 39.1288 7.37884 38.8151 7.23358 38.4534C7.08832 38.0916 7.04745 37.6964 7.11563 37.3126L9.19897 25.5834L0.615635 17.2501C0.347838 16.9829 0.157867 16.6477 0.0661094 16.2807C-0.0256486 15.9137 -0.0157297 15.5286 0.0948016 15.1668C0.215551 14.7965 0.437669 14.4675 0.735948 14.2171C1.03423 13.9667 1.39672 13.8049 1.7823 13.7501L13.6573 12.0209L18.8865 1.33343C19.0571 0.981201 19.3234 0.684145 19.655 0.476294C19.9866 0.268443 20.3701 0.158203 20.7615 0.158203C21.1528 0.158203 21.5363 0.268443 21.8679 0.476294C22.1995 0.684145 22.4659 0.981201 22.6365 1.33343L27.9281 12.0001L39.8031 13.7293C40.1887 13.7841 40.5512 13.9459 40.8495 14.1963C41.1478 14.4467 41.3699 14.7757 41.4906 15.1459C41.6012 15.5078 41.6111 15.8928 41.5193 16.2599C41.4276 16.6269 41.2376 16.962 40.9698 17.2293L32.3865 25.5626L34.4698 37.2918C34.5442 37.6823 34.5052 38.086 34.3576 38.4552C34.2099 38.8244 33.9597 39.1436 33.6365 39.3751C33.2592 39.6395 32.805 39.7713 32.3448 39.7501Z" fill="#FCD26D"/>
</svg>
