<svg width="16" height="18" viewBox="0 0 16 18" fill="none" xmlns="http://www.w3.org/2000/svg">
<path d="M5.5171 17.2963C6.3159 18.1334 7.6087 17.6831 7.948 16.7058C8.22795 15.8996 8.5916 14.9341 8.94594 14.2232C10.0056 12.0972 10.6242 10.8877 12.3303 9.37414C12.5566 9.17332 12.8484 9.0115 13.1709 8.88402C14.3001 8.43762 15.3619 7.26792 15.0842 5.87932L14.7311 4.11412C14.5454 3.18562 13.8511 2.44162 12.9375 2.19252L7.3378 0.665321C4.7922 -0.0289783 2.1983 1.60582 1.7263 4.20172L1.0424 7.96342C0.707601 9.80497 2.1223 11.5001 3.994 11.5001L4.8775 11.5001L4.8672 11.5523C4.7871 11.9605 4.6907 12.5227 4.6262 13.1353C4.562 13.7455 4.5279 14.4197 4.5782 15.0478C4.6275 15.6642 4.7621 16.297 5.0824 16.7775C5.1919 16.9417 5.3545 17.1258 5.5171 17.2963Z" fill="#FF535C"/>
</svg>
