<svg width="15" height="15" viewBox="0 0 15 15" fill="none" xmlns="http://www.w3.org/2000/svg">
<path d="M11.6427 14.38C11.5228 14.3805 11.4045 14.3522 11.2977 14.2975L7.47272 12.295L3.64772 14.2975C3.52352 14.3628 3.38348 14.392 3.24353 14.3817C3.10358 14.3714 2.96933 14.322 2.85604 14.2392C2.74276 14.1564 2.65498 14.0434 2.60268 13.9132C2.55039 13.783 2.53568 13.6407 2.56022 13.5025L3.31022 9.28004L0.220222 6.28004C0.123816 6.18383 0.055426 6.06319 0.0223932 5.93106C-0.0106397 5.79892 -0.00706894 5.66029 0.0327223 5.53004C0.0761923 5.39674 0.156155 5.2783 0.263535 5.18815C0.370915 5.09801 0.501414 5.03977 0.640222 5.02004L4.91522 4.39754L6.79772 0.550036C6.85914 0.423232 6.95503 0.316292 7.07441 0.241466C7.19379 0.16664 7.33183 0.126953 7.47272 0.126953C7.61361 0.126953 7.75166 0.16664 7.87104 0.241466C7.99042 0.316292 8.08631 0.423232 8.14772 0.550036L10.0527 4.39004L14.3277 5.01254C14.4665 5.03227 14.597 5.09051 14.7044 5.18065C14.8118 5.2708 14.8918 5.38924 14.9352 5.52254C14.975 5.65279 14.9786 5.79142 14.9456 5.92356C14.9125 6.05569 14.8441 6.17633 14.7477 6.27254L11.6577 9.27254L12.4077 13.495C12.4345 13.6356 12.4205 13.781 12.3673 13.9139C12.3142 14.0468 12.2241 14.1617 12.1077 14.245C11.9719 14.3402 11.8084 14.3877 11.6427 14.38Z" fill="#BABABA"/>
</svg>
