<svg width="15" height="15" viewBox="0 0 15 15" fill="none" xmlns="http://www.w3.org/2000/svg">
<path d="M11.6427 14.6105C11.5228 14.611 11.4045 14.5827 11.2977 14.528L7.47272 12.5255L3.64772 14.528C3.52352 14.5933 3.38348 14.6225 3.24353 14.6122C3.10358 14.6018 2.96933 14.5525 2.85604 14.4697C2.74276 14.3868 2.65498 14.2739 2.60268 14.1437C2.55039 14.0135 2.53568 13.8712 2.56022 13.733L3.31022 9.5105L0.220222 6.5105C0.123816 6.4143 0.055426 6.29366 0.0223932 6.16152C-0.0106397 6.02939 -0.00706894 5.89076 0.0327223 5.7605C0.0761923 5.62721 0.156155 5.50877 0.263535 5.41862C0.370915 5.32848 0.501414 5.27023 0.640222 5.2505L4.91522 4.628L6.79772 0.780504C6.85914 0.653701 6.95503 0.546761 7.07441 0.471935C7.19379 0.397108 7.33183 0.357422 7.47272 0.357422C7.61361 0.357422 7.75166 0.397108 7.87104 0.471935C7.99042 0.546761 8.08631 0.653701 8.14772 0.780504L10.0527 4.6205L14.3277 5.243C14.4665 5.26273 14.597 5.32098 14.7044 5.41112C14.8118 5.50127 14.8918 5.61971 14.9352 5.753C14.975 5.88326 14.9786 6.02189 14.9456 6.15402C14.9125 6.28616 14.8441 6.4068 14.7477 6.503L11.6577 9.503L12.4077 13.7255C12.4345 13.8661 12.4205 14.0114 12.3673 14.1443C12.3142 14.2772 12.2241 14.3922 12.1077 14.4755C11.9719 14.5707 11.8084 14.6182 11.6427 14.6105Z" fill="#FCD26D"/>
</svg>
