<?xml version="1.0" encoding="windows-1252"?>
<!-- Generator: Adobe Illustrator 21.0.2, SVG Export Plug-In . SVG Version: 6.00 Build 0)  -->
<svg xmlns="http://www.w3.org/2000/svg" xmlns:xlink="http://www.w3.org/1999/xlink" version="1.1" id="Layer_1" x="0px" y="0px" viewBox="0 0 40 40" style="enable-background:new 0 0 40 40;" xml:space="preserve">
<g>
	<path style="fill:#DFF0FE;" d="M15,38.5c-0.827,0-1.5-0.673-1.5-1.5V26.5H3c-0.827,0-1.5-0.673-1.5-1.5V15   c0-0.827,0.673-1.5,1.5-1.5h10.5V3c0-0.827,0.673-1.5,1.5-1.5h10c0.827,0,1.5,0.673,1.5,1.5v10.5H37c0.827,0,1.5,0.673,1.5,1.5v10   c0,0.827-0.673,1.5-1.5,1.5H26.5V37c0,0.827-0.673,1.5-1.5,1.5H15z"/>
	<g>
		<path style="fill:#4788C7;" d="M25,2c0.551,0,1,0.449,1,1v10v1h1h10c0.551,0,1,0.449,1,1v10c0,0.551-0.449,1-1,1H27h-1v1v10    c0,0.551-0.449,1-1,1H15c-0.551,0-1-0.449-1-1V27v-1h-1H3c-0.551,0-1-0.449-1-1V15c0-0.551,0.449-1,1-1h10h1v-1V3    c0-0.551,0.449-1,1-1H25 M25,1H15c-1.105,0-2,0.895-2,2v10H3c-1.105,0-2,0.895-2,2v10c0,1.105,0.895,2,2,2h10v10    c0,1.105,0.895,2,2,2h10c1.105,0,2-0.895,2-2V27h10c1.105,0,2-0.895,2-2V15c0-1.105-0.895-2-2-2H27V3C27,1.895,26.105,1,25,1L25,1    z"/>
	</g>
</g>
</svg>